<svg width="467" height="412" viewBox="0 0 467 412" fill="none" xmlns="http://www.w3.org/2000/svg">
<path d="M198.741 57.84H25.151V213.144H198.741V57.84Z" fill="#FAFAFA"/>
<path d="M198.741 213.145C198.741 213.145 198.712 212.149 198.697 210.262C198.687 208.356 198.672 205.57 198.652 201.941C198.629 194.649 198.594 183.991 198.55 170.416C198.501 143.281 198.432 104.506 198.348 57.841L198.741 58.234C148.748 58.254 89.086 58.278 25.166 58.304H25.15L25.614 57.84C25.594 114.342 25.575 167.509 25.558 213.144L25.15 212.736C76.936 212.821 120.279 212.893 150.703 212.942C165.925 212.988 177.909 213.025 186.115 213.049C190.203 213.07 193.344 213.086 195.49 213.097C196.54 213.107 197.343 213.115 197.907 213.12C198.452 213.129 198.741 213.145 198.741 213.145C198.741 213.145 198.483 213.16 197.954 213.168C197.4 213.173 196.612 213.181 195.581 213.191C193.453 213.202 190.339 213.218 186.286 213.239C178.102 213.264 166.148 213.301 150.966 213.347C120.478 213.397 77.044 213.468 25.15 213.553L24.742 213.554V213.145C24.726 167.511 24.707 114.343 24.686 57.841V57.377H25.15H25.166C89.086 57.403 148.748 57.427 198.741 57.447H199.136L199.135 57.841C199.051 104.61 198.981 143.47 198.933 170.665C198.889 184.202 198.855 194.831 198.831 202.102C198.811 205.699 198.796 208.46 198.786 210.348C198.77 212.207 198.741 213.145 198.741 213.145Z" fill="#E0E0E0"/>
<path d="M91.7109 85.435C91.7109 85.691 82.5739 85.899 71.3059 85.899C60.0329 85.899 50.8979 85.691 50.8979 85.435C50.8979 85.179 60.0329 84.971 71.3059 84.971C82.5739 84.971 91.7109 85.179 91.7109 85.435Z" fill="#E0E0E0"/>
<path d="M165.264 97.096C165.264 97.352 140.162 97.56 109.205 97.56C78.237 97.56 53.14 97.353 53.14 97.096C53.14 96.84 78.236 96.632 109.205 96.632C140.163 96.632 165.264 96.84 165.264 97.096Z" fill="#E0E0E0"/>
<path d="M58.511 116.848H51.197V124.161H58.511V116.848Z" fill="#E0E0E0"/>
<path d="M76.512 116.848H69.199V124.161H76.512V116.848Z" fill="#E0E0E0"/>
<path d="M94.847 116.516H87.534V123.829H94.847V116.516Z" fill="#E0E0E0"/>
<path d="M112.517 116.848H105.204V124.161H112.517V116.848Z" fill="#E0E0E0"/>
<path d="M130.519 116.848H123.206V124.161H130.519V116.848Z" fill="#E0E0E0"/>
<path d="M148.521 116.848H141.208V124.161H148.521V116.848Z" fill="#E0E0E0"/>
<path d="M166.523 116.848H159.21V124.161H166.523V116.848Z" fill="#EBEBEB"/>
<path d="M58.511 132.396H51.197V139.709H58.511V132.396Z" fill="#EBEBEB"/>
<path d="M76.512 132.396H69.199V139.709H76.512V132.396Z" fill="#E0E0E0"/>
<path d="M94.515 132.396H87.201V139.709H94.515V132.396Z" fill="#EBEBEB"/>
<path d="M112.517 132.396H105.204V139.709H112.517V132.396Z" fill="#E0E0E0"/>
<path d="M130.519 132.396H123.206V139.709H130.519V132.396Z" fill="#E0E0E0"/>
<path d="M148.853 132.064H141.54V139.377H148.853V132.064Z" fill="#E0E0E0"/>
<path d="M166.523 132.396H159.21V139.709H166.523V132.396Z" fill="#E0E0E0"/>
<path d="M58.511 147.944H51.197V155.257H58.511V147.944Z" fill="#E0E0E0"/>
<path d="M76.8439 147.611H69.5309V154.924H76.8439V147.611Z" fill="#E0E0E0"/>
<path d="M94.515 147.944H87.201V155.257H94.515V147.944Z" fill="#E0E0E0"/>
<path d="M112.517 147.944H105.204V155.257H112.517V147.944Z" fill="#EBEBEB"/>
<path d="M130.519 147.944H123.206V155.257H130.519V147.944Z" fill="#E0E0E0"/>
<path d="M148.521 147.944H141.208V155.257H148.521V147.944Z" fill="#E0E0E0"/>
<path d="M166.523 147.944H159.21V155.257H166.523V147.944Z" fill="#E0E0E0"/>
<path d="M58.511 163.491H51.197V170.805H58.511V163.491Z" fill="#E0E0E0"/>
<path d="M76.512 163.491H69.199V170.805H76.512V163.491Z" fill="#E0E0E0"/>
<path d="M94.515 163.491H87.201V170.805H94.515V163.491Z" fill="#E0E0E0"/>
<path d="M112.849 163.159H105.536V170.472H112.849V163.159Z" fill="#E0E0E0"/>
<path d="M130.519 163.491H123.206V170.805H130.519V163.491Z" fill="#E0E0E0"/>
<path d="M148.521 163.491H141.208V170.805H148.521V163.491Z" fill="#EBEBEB"/>
<path d="M166.523 163.491H159.21V170.805H166.523V163.491Z" fill="#E0E0E0"/>
<path d="M58.511 179.039H51.197V186.352H58.511V179.039Z" fill="#E0E0E0"/>
<path d="M76.512 179.039H69.199V186.352H76.512V179.039Z" fill="#EBEBEB"/>
<path d="M94.515 179.039H87.201V186.352H94.515V179.039Z" fill="#E0E0E0"/>
<path d="M112.517 179.039H105.204V186.352H112.517V179.039Z" fill="#E0E0E0"/>
<path d="M130.519 179.039H123.206V186.352H130.519V179.039Z" fill="#E0E0E0"/>
<path d="M148.853 178.707H141.54V186.02H148.853V178.707Z" fill="#E0E0E0"/>
<path d="M166.523 179.039H159.21V186.352H166.523V179.039Z" fill="#E0E0E0"/>
<path d="M394.77 20.87L383.614 20.9302L383.914 76.4392L395.07 76.379L394.77 20.87Z" fill="#E0E0E0"/>
<path d="M315.854 21.0477L286.965 21.2008L287.127 51.8458L316.016 51.6927L315.854 21.0477Z" fill="#EBEBEB"/>
<path d="M344.61 20.8602L315.721 21.0162L315.887 51.6612L344.776 51.5052L344.61 20.8602Z" fill="#F5F5F5"/>
<path d="M287.008 29.649C306.206 29.807 325.452 29.696 344.648 29.384C345.043 29.378 345.04 28.772 344.644 28.77C325.446 28.664 306.2 28.758 287.005 29.123C286.667 29.129 286.669 29.646 287.008 29.649Z" fill="#E0E0E0"/>
<path d="M321.445 51.1505L268.959 51.4339L269.094 76.4069L321.58 76.1235L321.445 51.1505Z" fill="#EBEBEB"/>
<path d="M373.683 50.8692L321.197 51.1526L321.332 76.1256L373.818 75.8422L373.683 50.8692Z" fill="#F5F5F5"/>
<path d="M268.989 58.391C303.856 58.786 338.846 58.432 373.712 57.874C374.107 57.867 374.105 57.262 373.709 57.26C338.839 57.076 303.848 57.096 268.987 57.865C268.648 57.872 268.65 58.387 268.989 58.391Z" fill="#E0E0E0"/>
<path d="M452.707 76.418H249.361V85.365H452.707V76.418Z" fill="#E0E0E0"/>
<path d="M290.908 80.72H282.653V111.248H290.908V80.72Z" fill="#E0E0E0"/>
<path d="M414.135 80.72H405.88V111.248H414.135V80.72Z" fill="#E0E0E0"/>
<path d="M405.655 0.17041L394.499 0.230652L394.911 76.5757L406.067 76.5154L405.655 0.17041Z" fill="#EBEBEB"/>
<path d="M423.085 14.3858L405.751 14.4794L406.085 76.3484L423.419 76.2548L423.085 14.3858Z" fill="#F5F5F5"/>
<path d="M422.961 26.317C422.961 26.483 419.08 26.617 414.294 26.617C409.507 26.617 405.627 26.482 405.627 26.317C405.627 26.151 409.507 26.017 414.294 26.017C419.081 26.017 422.961 26.152 422.961 26.317Z" fill="#E0E0E0"/>
<path d="M422.961 23.718C422.961 23.884 419.08 24.018 414.294 24.018C409.507 24.018 405.627 23.884 405.627 23.718C405.627 23.552 409.507 23.418 414.294 23.418C419.081 23.418 422.961 23.552 422.961 23.718Z" fill="#E0E0E0"/>
<path d="M422.961 66.958C422.961 67.124 419.08 67.258 414.294 67.258C409.507 67.258 405.627 67.124 405.627 66.958C405.627 66.792 409.507 66.658 414.294 66.658C419.081 66.658 422.961 66.792 422.961 66.958Z" fill="#E0E0E0"/>
<path d="M422.961 64.359C422.961 64.525 419.08 64.659 414.294 64.659C409.507 64.659 405.627 64.525 405.627 64.359C405.627 64.193 409.507 64.059 414.294 64.059C419.081 64.059 422.961 64.193 422.961 64.359Z" fill="#E0E0E0"/>
<path d="M414.573 58.688C414.407 58.688 414.273 52.446 414.273 44.748C414.273 37.047 414.407 30.807 414.573 30.807C414.739 30.807 414.873 37.048 414.873 44.748C414.874 52.446 414.739 58.688 414.573 58.688Z" fill="#E0E0E0"/>
<path d="M442.017 29.591H423.149V76.289H442.017V29.591Z" fill="#EBEBEB"/>
<path d="M403.112 13.221C403.112 14.992 401.677 16.427 399.906 16.427C398.135 16.427 396.7 14.992 396.7 13.221C396.7 11.45 398.135 10.015 399.906 10.015C401.676 10.015 403.112 11.45 403.112 13.221Z" fill="#E0E0E0"/>
<path d="M400.897 22.039H398.915V67.455H400.897V22.039Z" fill="#E0E0E0"/>
<path d="M58.262 311.833C63.495 309.133 69.658 308.782 75.468 309.742C78.589 310.258 81.843 311.192 83.967 313.536C86.091 315.881 86.493 320.007 84.055 322.021C82.603 323.22 80.579 323.402 78.696 323.381C74.148 323.328 69.101 322.527 65.468 325.264C63.395 326.825 62.015 329.421 59.536 330.189C57.111 330.94 54.375 329.509 53.089 327.321C51.803 325.132 51.76 322.397 52.36 319.93C52.36 319.93 52.991 314.553 58.262 311.833Z" fill="#EF4136"/>
<path d="M46.273 288.688C49.473 293.258 55.693 291.745 58.576 288.956C61.46 286.166 62.679 282.123 63.788 278.267C66.323 269.457 68.879 260.215 66.994 251.244C66.43 248.562 65.427 245.887 63.543 243.897C61.658 241.907 58.76 240.723 56.11 241.423C52.974 242.252 51.025 245.323 49.617 248.245C45.476 256.833 43.284 266.354 43.252 275.889C43.236 280.342 43.761 285.012 46.273 288.688Z" fill="#EF4136"/>
<path d="M37.485 295.246C40.96 291.122 41.619 285.108 40.073 279.942C38.527 274.776 35.034 270.381 31.009 266.793C26.289 262.586 20.742 259.313 14.778 257.216C12.431 256.391 9.95498 255.74 7.47798 255.976C5.00098 256.212 2.50697 257.479 1.35197 259.682C-0.356026 262.94 1.28197 266.892 3.05297 270.115C6.17397 275.795 9.74198 281.228 13.714 286.35C16.909 290.47 20.57 294.533 25.44 296.395C30.31 298.257 35.369 298.038 37.95 294.66" fill="#EF4136"/>
<path d="M46.056 357.632C46.116 357.636 46.213 356.895 46.345 355.555C46.492 354.043 46.677 352.145 46.897 349.887C47.161 347.502 47.509 344.664 48.172 341.573C48.832 338.49 49.866 335.149 51.194 331.761C52.569 328.393 54.245 325.331 56.205 322.883C58.15 320.424 60.413 318.644 62.539 317.617C64.658 316.57 66.56 316.145 67.873 315.956C69.198 315.82 69.94 315.715 69.941 315.657C69.942 315.598 69.198 315.588 67.837 315.624C66.488 315.714 64.509 316.056 62.274 317.072C60.033 318.066 57.633 319.874 55.592 322.384C53.535 324.884 51.798 328.013 50.399 331.441C49.048 334.889 48.03 338.264 47.399 341.413C46.77 344.557 46.482 347.427 46.294 349.832C46.114 352.239 46.046 354.188 46.013 355.535C45.982 356.882 45.998 357.629 46.056 357.632Z" fill="#263238"/>
<path d="M46.447 353.271C46.476 353.27 46.495 352.938 46.503 352.307C46.501 351.583 46.499 350.671 46.496 349.551C46.489 347.16 46.49 343.699 46.619 339.425C46.831 330.878 47.567 321.679 48.988 308.71C50.334 296.515 52.141 282.323 54.047 273.097C54.456 270.998 54.868 269.11 55.255 267.456C55.624 265.798 55.94 264.37 56.245 263.213C56.507 262.125 56.72 261.238 56.889 260.535C57.027 259.92 57.086 259.592 57.058 259.584C57.03 259.576 56.915 259.887 56.723 260.488C56.513 261.181 56.248 262.055 55.923 263.129C55.568 264.274 55.204 265.694 54.789 267.345C54.356 268.992 53.902 270.876 53.454 272.971C51.568 281.332 49.57 293.017 48.135 306.017C46.711 319.013 46.069 330.846 46.012 339.414C45.961 343.698 46.052 347.166 46.162 349.56C46.23 350.679 46.286 351.59 46.33 352.314C46.378 352.943 46.417 353.273 46.447 353.271Z" fill="#263238"/>
<path d="M46.504 330.449C46.564 330.447 46.553 329.424 46.484 327.57C46.378 325.72 46.124 323.046 45.602 319.771C45.05 316.504 44.278 312.624 43.066 308.408C42.541 306.481 41.306 301.863 38.314 294.962C34.373 285.612 29.018 277.969 24.36 273.234C23.267 271.977 22.051 271.071 21.077 270.183C20.573 269.757 20.128 269.333 19.675 268.996C19.219 268.682 18.795 268.389 18.401 268.118C16.868 267.07 16.009 266.517 15.977 266.566C15.839 266.753 19.411 268.855 23.921 273.653C28.412 278.441 33.618 286.032 37.527 295.303C39.707 300.332 41.227 304.817 42.305 308.625C43.551 312.8 44.379 316.641 45.004 319.875C45.598 323.117 45.943 325.764 46.15 327.597C46.322 329.433 46.445 330.451 46.504 330.449Z" fill="#263238"/>
<path d="M24.4449 370.708L26.7309 402.038H66.9809L69.2679 370.708H24.4449Z" fill="#263238"/>
<path d="M74.0699 358.358H20.5569V370.707H74.0699V358.358Z" fill="#263238"/>
<path d="M20.5569 400.839V404.263H23.0709H73.1859V400.839H20.5569Z" fill="#455A64"/>
<path d="M25.536 410.287L23.071 404.263H71.269L68.394 410.287H25.536Z" fill="#455A64"/>
<path d="M68.521 380.947C68.53 380.954 68.466 381.052 68.333 381.235C68.173 381.447 67.975 381.709 67.732 382.033C67.16 382.765 66.375 383.77 65.387 385.034L65.283 385.167L65.182 385.028C63.708 382.99 61.739 380.266 59.422 377.061H59.753C58.039 379.487 56.131 382.19 54.082 385.092L53.904 385.344L53.705 385.107C51.612 382.617 49.339 379.912 46.979 377.104L47.367 377.099C47.25 377.246 47.124 377.405 46.997 377.564C44.911 380.179 42.892 382.71 40.983 385.104L40.782 385.355L40.597 385.093C38.555 382.204 36.647 379.505 34.923 377.064L35.253 377.08C32.457 380.266 30.085 382.968 28.265 385.042L28.141 385.183L28.046 385.024C27.125 383.476 26.39 382.242 25.858 381.348C25.629 380.949 25.444 380.627 25.297 380.369C25.174 380.145 25.115 380.027 25.126 380.02C25.137 380.013 25.216 380.119 25.36 380.33C25.523 380.578 25.728 380.888 25.981 381.272C26.54 382.15 27.311 383.362 28.278 384.881L28.059 384.863C29.85 382.764 32.184 380.029 34.935 376.804L35.108 376.601L35.265 376.82C37.005 379.249 38.93 381.936 40.99 384.812L40.605 384.802C42.51 382.405 44.524 379.87 46.605 377.251C46.732 377.092 46.858 376.933 46.975 376.786L47.166 376.546L47.363 376.781C49.716 379.594 51.983 382.304 54.07 384.799L53.694 384.814C55.764 381.927 57.691 379.238 59.422 376.824L59.59 376.59L59.754 376.824C62.023 380.065 63.95 382.817 65.393 384.878L65.188 384.872C66.216 383.64 67.032 382.661 67.627 381.948C67.892 381.642 68.107 381.393 68.28 381.192C68.429 381.023 68.511 380.94 68.521 380.947Z" fill="#E0E0E0"/>
<path d="M69.828 370.501C69.828 370.64 59.743 370.752 47.305 370.752C34.863 370.752 24.78 370.64 24.78 370.501C24.78 370.363 34.863 370.251 47.305 370.251C59.743 370.25 69.828 370.362 69.828 370.501Z" fill="#455A64"/>
<path d="M71.861 404.6C71.861 404.738 60.9 404.851 47.383 404.851C33.861 404.851 22.902 404.739 22.902 404.6C22.902 404.462 33.86 404.35 47.383 404.35C60.901 404.349 71.861 404.461 71.861 404.6Z" fill="#263238"/>
<path d="M455.749 410.855H331.972V293.237C331.972 284.883 338.744 278.111 347.098 278.111H440.624C448.978 278.111 455.75 284.883 455.75 293.237V410.855H455.749Z" fill="#455A64"/>
<path d="M445.343 278.788C445.487 278.788 445.603 308.34 445.603 344.785C445.603 381.243 445.486 410.788 445.343 410.788C445.199 410.788 445.083 381.243 445.083 344.785C445.083 308.34 445.199 278.788 445.343 278.788Z" fill="#263238"/>
<path d="M384.364 134.002C395.704 150.168 402.315 169.611 403.178 189.339C403.76 202.639 401.97 216.813 408.282 228.535C417.337 245.351 436.931 244.78 442.93 262.912C445.539 270.798 440.729 288.154 439.432 296.359C437.958 305.685 443.662 313.516 442.189 322.841C440.838 331.39 434.441 337.491 426.756 341.472C419.92 345.013 413.599 345.107 406.486 342.162C392.933 336.552 381.653 330.629 371.997 319.588C358.44 304.087 354.345 282.623 352.029 262.161C346.922 217.048 347.957 171.244 355.098 126.408" fill="#263238"/>
<path d="M413.348 344.068C413.348 344.068 413.495 344.022 413.785 343.959C414.074 343.89 414.511 343.823 415.066 343.655C416.181 343.36 417.817 342.828 419.749 341.783C421.669 340.744 423.942 339.215 425.934 336.823C426.918 335.631 427.819 334.203 428.352 332.535C428.861 330.865 429.091 328.988 429.197 327.04C429.39 323.12 428.792 318.831 427.901 314.298C427.029 309.761 425.846 304.917 425.561 299.675C425.425 297.063 425.538 294.347 426.127 291.657C426.684 288.96 427.658 286.326 428.669 283.678C429.686 281.031 430.758 278.356 431.534 275.554C432.268 272.757 432.719 269.788 432.227 266.855C431.801 263.919 430.597 261.172 428.983 258.772C427.371 256.358 425.368 254.276 423.312 252.347C419.18 248.491 414.709 245.307 410.889 241.731C403.181 234.632 397.99 226.554 394.71 219.394C393.075 215.801 391.82 212.445 390.985 209.421C390.505 207.927 390.231 206.49 389.888 205.192C389.631 203.876 389.396 202.673 389.184 201.588C388.866 199.404 388.634 197.708 388.571 196.547C388.528 195.987 388.494 195.551 388.469 195.231C388.449 194.934 388.452 194.781 388.452 194.781C388.452 194.781 388.485 194.931 388.522 195.226C388.559 195.544 388.61 195.979 388.675 196.536C388.772 197.692 389.036 199.38 389.384 201.552C389.609 202.631 389.858 203.827 390.131 205.135C390.488 206.425 390.774 207.853 391.266 209.337C392.124 212.34 393.397 215.672 395.045 219.237C398.351 226.342 403.543 234.347 411.215 241.376C415.013 244.916 419.492 248.093 423.661 251.972C425.735 253.914 427.766 256.019 429.414 258.481C431.063 260.928 432.305 263.754 432.744 266.778C433.249 269.802 432.783 272.851 432.036 275.688C431.247 278.531 430.166 281.22 429.148 283.86C428.135 286.501 427.167 289.11 426.616 291.759C426.033 294.399 425.915 297.067 426.043 299.65C426.31 304.832 427.471 309.664 428.327 314.215C429.202 318.763 429.785 323.091 429.567 327.057C429.445 329.035 429.206 330.912 428.669 332.637C428.106 334.353 427.172 335.803 426.16 337.008C424.111 339.424 421.797 340.939 419.845 341.961C417.881 342.987 416.223 343.491 415.093 343.755C413.96 344.026 413.348 344.068 413.348 344.068Z" fill="#455A64"/>
<path d="M227.164 379.801L275.152 357.008C275.152 357.008 293.842 266.263 297.375 259.448C300.909 252.633 315.681 246.745 315.681 246.745L313.206 369.625L308.822 397.97L241.143 404.382L227.164 379.801Z" fill="#EF4136"/>
<path d="M186.205 401.298C185.94 401.288 184.605 402.124 185.724 404.23C186.843 406.337 194.967 413.305 197.358 410.878C199.75 408.451 196.097 405.489 196.097 405.489L186.205 401.298Z" fill="#FFBE9D"/>
<path d="M196.443 405.584C196.443 405.584 206.255 406.821 210.034 408.258C214.138 409.817 219.135 408.755 222.498 406.475C225.861 404.196 227.822 402.137 227.822 402.137L240.341 401.94C240.341 401.94 246.351 395.711 242.783 386.428C242.161 384.809 241.489 383.528 239.915 381.542C238.428 379.934 236.08 378.63 232.022 377.929L217.149 381.141C217.149 381.141 194.106 379.494 190.011 381.431C190.011 381.431 184.863 384.485 183.269 385.765C182.669 386.247 180.844 392.111 184.592 395.159C184.592 395.159 181.329 397.754 183.097 400.081L183.944 401.114C183.944 401.114 181.75 403.954 182.876 405.19C184.002 406.426 193.862 412.205 197.388 410.827C200.914 409.449 197.996 406.182 196.443 405.584Z" fill="#FFBE9D"/>
<path d="M187.058 390.092C187.07 390.065 187.5 390.231 188.277 390.527C189.054 390.823 190.182 391.243 191.597 391.693C192.304 391.918 193.084 392.148 193.928 392.37C194.768 392.6 195.687 392.78 196.639 393.089C197.58 393.402 198.596 393.845 199.341 394.719C200.047 395.561 200.527 396.818 200.063 398.01C199.837 398.595 199.363 399.041 198.846 399.318C198.32 399.59 197.755 399.718 197.207 399.775C196.102 399.88 195.063 399.74 194.08 399.61C192.114 399.31 190.401 398.783 188.995 398.285C187.586 397.787 186.475 397.316 185.708 396.989C184.943 396.659 184.527 396.46 184.537 396.434C184.548 396.407 184.984 396.556 185.767 396.841C186.551 397.122 187.676 397.551 189.088 398.011C190.497 398.471 192.201 398.963 194.134 399.237C195.098 399.356 196.131 399.482 197.164 399.377C197.679 399.322 198.195 399.198 198.655 398.96C199.104 398.716 199.498 398.341 199.684 397.857C200.075 396.881 199.674 395.742 199.034 394.979C198.381 394.2 197.426 393.758 196.52 393.45C195.602 393.141 194.683 392.946 193.838 392.7C192.992 392.462 192.212 392.214 191.506 391.97C190.094 391.482 188.977 391.018 188.216 390.676C187.455 390.333 187.047 390.117 187.058 390.092Z" fill="#EB996E"/>
<path d="M187.941 382.998C187.953 382.971 188.381 383.138 189.153 383.438C189.926 383.735 191.045 384.165 192.449 384.633C193.852 385.102 195.54 385.609 197.44 386.064C198.377 386.304 199.459 386.496 200.35 387.241C200.786 387.609 201.117 388.151 201.204 388.746C201.298 389.338 201.192 389.949 200.95 390.496C200.457 391.616 199.419 392.333 198.382 392.682C197.332 393.042 196.24 393.066 195.254 392.93C193.268 392.632 191.634 391.92 190.224 391.474C188.875 391.002 187.758 390.611 186.908 390.313C186.128 390.03 185.701 389.861 185.71 389.834C185.719 389.807 186.163 389.925 186.958 390.161C187.818 390.427 188.949 390.776 190.315 391.198C191.736 391.611 193.393 392.292 195.302 392.555C196.253 392.676 197.276 392.642 198.252 392.302C199.214 391.974 200.146 391.311 200.576 390.33C201.028 389.363 200.879 388.174 200.087 387.542C199.324 386.888 198.288 386.672 197.351 386.429C195.442 385.95 193.753 385.411 192.355 384.905C190.956 384.4 189.849 383.927 189.092 383.584C188.336 383.239 187.93 383.022 187.941 382.998Z" fill="#EB996E"/>
<path d="M192.67 385.025C192.551 385.024 192.486 384.122 192.224 383.053C191.971 381.982 191.619 381.149 191.725 381.094C191.817 381.039 192.354 381.828 192.623 382.957C192.897 384.085 192.777 385.032 192.67 385.025Z" fill="#EB996E"/>
<path d="M227.298 385.319L218.55 381.948C218.55 381.948 194.259 370.611 193.848 371.225C193.438 371.839 192.121 371.772 192.409 374.734C192.697 377.695 206.853 383.666 207.3 384.693C207.748 385.72 207.001 390.907 212.229 394.622C217.457 398.338 221.23 398.418 221.23 398.418" fill="#FFBE9D"/>
<path d="M221.23 398.418C221.23 398.425 221.159 398.43 221.022 398.425C220.885 398.419 220.681 398.404 220.417 398.366C219.888 398.292 219.112 398.134 218.145 397.821C217.178 397.51 216.024 397.034 214.755 396.345C213.499 395.641 212.071 394.804 210.727 393.552C209.381 392.314 208.28 390.528 207.745 388.438C207.464 387.4 207.365 386.271 207.228 385.172C207.211 385.032 207.18 384.908 207.142 384.796C207.113 384.72 207.023 384.65 206.913 384.562C206.696 384.399 206.449 384.25 206.203 384.102C205.706 383.809 205.188 383.529 204.662 383.247C202.555 382.125 200.313 380.99 198.051 379.69C196.92 379.04 195.783 378.35 194.678 377.563C194.13 377.163 193.588 376.741 193.095 376.242C192.846 375.996 192.62 375.715 192.428 375.398C192.344 375.228 192.258 375.058 192.226 374.852C192.183 374.655 192.193 374.495 192.174 374.314C192.146 373.616 192.169 372.866 192.549 372.201C192.735 371.869 193.046 371.62 193.321 371.427C193.459 371.329 193.582 371.237 193.656 371.137C193.682 371.112 193.636 371.146 193.74 371.053C193.853 370.984 193.873 371.007 193.911 370.999C193.997 370.993 194.024 371.008 194.082 371.012C194.175 371.03 194.263 371.05 194.347 371.074C195.663 371.479 196.867 372.009 198.076 372.505C200.477 373.517 202.77 374.54 204.952 375.52C209.314 377.485 213.22 379.298 216.495 380.833C217.315 381.209 218.09 381.602 218.831 381.916C219.587 382.213 220.302 382.494 220.971 382.758C222.298 383.284 223.445 383.738 224.395 384.115C225.309 384.485 226.03 384.776 226.553 384.988C226.78 385.084 226.963 385.162 227.111 385.225C227.236 385.281 227.299 385.312 227.296 385.319C227.293 385.326 227.226 385.307 227.096 385.264C226.944 385.211 226.756 385.146 226.524 385.065C225.994 384.871 225.263 384.603 224.336 384.263C223.378 383.904 222.221 383.471 220.883 382.97C220.209 382.716 219.49 382.444 218.729 382.157C217.967 381.845 217.2 381.467 216.373 381.097C213.069 379.604 209.148 377.832 204.797 375.865C202.612 374.895 200.317 373.881 197.92 372.876C196.722 372.386 195.494 371.852 194.24 371.468C194.162 371.446 194.086 371.429 194.014 371.415C193.989 371.413 193.933 371.402 193.935 371.407C193.93 371.393 193.936 371.437 193.923 371.375C193.896 371.299 193.928 371.31 193.907 371.275C193.901 371.263 193.891 371.253 193.879 371.246C194.154 371.432 193.948 371.307 194.007 371.352L193.982 371.383C193.853 371.554 193.695 371.661 193.56 371.759C193.285 371.954 193.052 372.144 192.901 372.411C192.594 372.941 192.552 373.631 192.584 374.295C192.605 374.654 192.621 374.929 192.786 375.198C192.949 375.466 193.153 375.724 193.388 375.956C193.852 376.426 194.381 376.84 194.917 377.232C196 378.006 197.128 378.693 198.251 379.342C200.498 380.64 202.733 381.78 204.841 382.914C205.368 383.2 205.887 383.483 206.392 383.784C206.644 383.937 206.893 384.087 207.135 384.271C207.245 384.36 207.399 384.47 207.478 384.659C207.533 384.818 207.566 384.97 207.583 385.112C207.719 386.259 207.805 387.331 208.073 388.352C208.58 390.387 209.627 392.12 210.927 393.342C212.219 394.572 213.632 395.429 214.864 396.142C216.11 396.843 217.245 397.336 218.195 397.668C219.145 398.002 219.909 398.183 220.429 398.283C220.689 398.334 220.89 398.362 221.024 398.382C221.161 398.402 221.231 398.411 221.23 398.418Z" fill="#EB996E"/>
<path d="M194.441 399.56C194.448 399.537 194.788 399.603 195.371 399.831C195.951 400.058 196.775 400.461 197.661 401.155C198.099 401.508 198.563 401.911 198.985 402.439C199.387 402.957 199.797 403.655 199.691 404.484C199.586 405.318 198.872 405.977 198.072 406.234C197.245 406.512 196.349 406.381 195.527 406.154C192.272 405.163 189.439 403.967 187.473 402.921C186.491 402.399 185.723 401.929 185.208 401.582C184.692 401.236 184.422 401.022 184.437 401.001C184.454 400.975 184.752 401.144 185.291 401.446C185.829 401.75 186.613 402.179 187.604 402.663C189.581 403.633 192.423 404.782 195.635 405.759C196.425 405.979 197.243 406.088 197.945 405.853C198.648 405.63 199.228 405.083 199.317 404.43C199.417 403.775 199.085 403.14 198.715 402.646C198.335 402.146 197.889 401.734 197.478 401.379C195.783 399.981 194.401 399.638 194.441 399.56Z" fill="#EB996E"/>
<g opacity="0.3">
<path d="M308.478 398C300.618 371.491 293.686 337.346 285.827 310.837C282.954 335.312 286.55 367.621 291.055 391.848C291.583 394.687 291.825 397.47 294.027 399.338L308.478 398Z" fill="black"/>
</g>
<path d="M295.606 379.801C295.501 379.826 295.169 378.071 294.103 375.424C293.581 374.097 292.818 372.577 291.848 370.964C290.847 369.371 289.622 367.697 288.154 366.096C286.666 364.512 285.087 363.166 283.572 362.05C282.036 360.964 280.576 360.09 279.291 359.471C276.731 358.212 275.005 357.751 275.038 357.648C275.048 357.614 275.479 357.717 276.255 357.936C276.645 358.039 277.118 358.182 277.649 358.397C278.182 358.606 278.805 358.812 279.449 359.139C280.771 359.723 282.273 360.577 283.849 361.66C285.404 362.772 287.021 364.131 288.534 365.742C290.028 367.37 291.263 369.083 292.257 370.716C293.22 372.368 293.96 373.929 294.444 375.291C294.722 375.958 294.882 376.594 295.05 377.141C295.225 377.687 295.333 378.169 295.406 378.566C295.57 379.356 295.641 379.794 295.606 379.801Z" fill="#263238"/>
<path d="M310.595 245.509C310.595 245.509 285.457 301.66 285.457 311.969C285.457 322.278 304.292 393.905 304.292 393.905C304.113 396.747 303.381 411.024 303.381 411.024L408.971 411.386L410.579 388.689L402.337 367.059L410.571 305.914C410.571 305.914 416.113 270.412 416.606 260.484C417.223 248.06 375.141 233.661 376.288 231.941L369.021 222.214L327.387 256.018L319.162 232.259L309.305 241.575L310.595 245.509Z" fill="#EF4136"/>
<path d="M379.741 260.445C368.314 279.782 347.397 315.021 347.397 315.021L309.917 357.755C309.917 357.755 307.465 379.472 312.369 386.127C317.273 392.782 325.68 397.336 325.68 397.336C325.68 397.336 335.575 397.336 348.142 386.828C360.708 376.32 395.386 332.885 395.386 332.885L407.295 318.524C407.295 318.524 421.49 283.641 418.841 265.887C417.819 259.042 414.906 256.195 411.016 253.056C401.245 245.172 386.128 249.637 379.741 260.445Z" fill="#EF4136"/>
<path d="M411.696 306.401C411.704 306.405 411.645 306.539 411.523 306.797C411.387 307.075 411.203 307.453 410.968 307.936C410.471 308.932 409.708 310.388 408.666 312.229C406.598 315.92 403.384 321.134 399.177 327.419C397.072 330.56 394.716 333.967 392.134 337.587C389.576 341.228 386.6 344.937 384.179 349.297C381.694 353.617 379.56 358.419 376.906 363.183C374.253 367.944 371.122 372.673 367.381 377.093C363.631 381.5 359.391 385.344 354.755 388.253C350.136 391.185 345.097 393.082 340.138 393.913C335.178 394.77 330.29 394.491 325.974 393.313C323.807 392.744 321.807 391.871 319.985 390.884C318.156 389.905 316.493 388.785 315.05 387.543C313.592 386.322 312.337 384.994 311.328 383.607C310.279 382.248 309.51 380.813 308.867 379.449C307.636 376.683 307.118 374.105 306.852 372.007C306.639 369.896 306.627 368.248 306.681 367.136C306.712 366.599 306.736 366.18 306.754 365.871C306.773 365.586 306.788 365.441 306.797 365.441C306.806 365.442 306.809 365.588 306.807 365.873C306.802 366.182 306.795 366.601 306.786 367.138C306.766 368.248 306.811 369.889 307.053 371.982C307.348 374.062 307.891 376.609 309.131 379.328C309.779 380.669 310.548 382.076 311.592 383.407C312.596 384.766 313.842 386.065 315.286 387.26C316.715 388.475 318.363 389.571 320.175 390.529C321.98 391.495 323.948 392.343 326.087 392.895C330.343 394.037 335.162 394.297 340.057 393.438C344.952 392.603 349.918 390.724 354.482 387.819C359.063 384.936 363.261 381.127 366.983 376.753C370.696 372.366 373.815 367.664 376.459 362.933C379.105 358.198 381.25 353.398 383.762 349.057C386.215 344.67 389.22 340.95 391.782 337.334C394.377 333.729 396.748 330.337 398.871 327.212C403.113 320.96 406.37 315.782 408.489 312.128C409.557 310.305 410.347 308.867 410.874 307.888C411.129 307.415 411.328 307.046 411.474 306.774C411.613 306.523 411.688 306.397 411.696 306.401Z" fill="#263238"/>
<path d="M308.041 355.827C308.086 355.902 307.508 356.229 306.82 356.996C306.134 357.747 305.371 359.016 305.224 360.563C305.084 362.111 305.602 363.499 306.139 364.363C306.675 365.243 307.183 365.67 307.126 365.735C307.096 365.782 306.487 365.449 305.833 364.567C305.183 363.706 304.552 362.217 304.706 360.515C304.867 358.814 305.761 357.466 306.557 356.739C307.361 355.99 308.02 355.776 308.041 355.827Z" fill="#263238"/>
<path d="M314.934 367.172C314.941 367.155 315.143 367.203 315.521 367.307C315.711 367.356 315.94 367.434 316.218 367.498C316.509 367.551 316.832 367.61 317.188 367.676C318.647 367.914 320.838 367.886 323.369 367.101C325.885 366.295 328.702 364.746 331.326 362.424C333.954 360.103 336.316 357.007 338.784 353.769C341.243 350.523 343.726 347.468 346.468 345.18C347.827 344.038 349.163 343.027 350.274 341.939C351.385 340.861 352.276 339.692 352.775 338.494C353.714 336.03 353.083 333.718 352.198 332.593C351.274 331.429 350.344 331.314 350.391 331.243C350.395 331.227 350.596 331.278 350.973 331.41C351.329 331.581 351.866 331.871 352.356 332.466C353.335 333.614 354.062 336.006 353.118 338.626C352.61 339.91 351.703 341.125 350.577 342.245C349.453 343.371 348.115 344.404 346.779 345.544C344.098 347.816 341.657 350.838 339.198 354.084C336.73 357.32 334.341 360.434 331.643 362.783C328.954 365.126 326.063 366.674 323.477 367.451C320.875 368.209 318.628 368.178 317.154 367.874C316.796 367.79 316.472 367.715 316.179 367.646C315.901 367.565 315.674 367.47 315.488 367.405C315.117 367.269 314.927 367.189 314.934 367.172Z" fill="#263238"/>
<path d="M384.826 254.507C384.84 254.519 384.695 254.726 384.407 255.111C384.083 255.532 383.657 256.086 383.126 256.776C381.986 258.199 380.416 260.32 378.504 262.958C374.716 268.26 369.854 275.853 365.167 284.628C360.453 293.39 356.548 301.518 353.562 307.322C352.077 310.228 350.856 312.57 349.975 314.169C349.553 314.932 349.215 315.543 348.957 316.008C348.719 316.426 348.587 316.641 348.571 316.632C348.555 316.624 348.657 316.392 348.864 315.959C349.1 315.483 349.409 314.857 349.795 314.076C350.633 312.39 351.8 310.04 353.232 307.158C356.132 301.316 359.985 293.161 364.708 284.382C369.404 275.591 374.332 268.002 378.205 262.743C380.159 260.126 381.777 258.036 382.967 256.65C383.53 255.984 383.981 255.451 384.325 255.045C384.64 254.681 384.812 254.495 384.826 254.507Z" fill="#263238"/>
<g opacity="0.3">
<path d="M306.798 365.441C311.674 368.084 317.025 367.803 322.467 366.735C327.909 365.667 332.948 362.652 336.462 358.361C335.516 363.112 333.481 367.756 330.014 371.141C326.548 374.525 321.53 376.494 316.765 375.622C312.001 374.749 307.192 370.27 306.798 365.441Z" fill="black"/>
</g>
<g opacity="0.3">
<path d="M352.902 336.585C355.968 341.282 357.063 347.223 355.872 352.704C360.001 346.381 360.971 338.377 359.86 330.908C358.749 323.439 355.715 316.395 352.334 309.642C352.334 309.642 348.605 315.937 348.571 316.632C348.391 320.266 349.729 327.111 350.431 330.682C352.308 332.451 353.196 335.209 352.704 337.741" fill="black"/>
</g>
<g opacity="0.3">
<path d="M323.323 391.603C333.261 399.349 348.007 399.715 358.881 393.349C369.353 387.219 375.799 376.183 381.784 365.627C391.048 349.287 402.352 329.08 408.97 311.501C408.97 311.501 390.418 336.813 384.826 347.723C380.607 355.954 377.37 361.379 372.174 369.032C361.734 384.408 342.829 393.616 324.287 392.358" fill="black"/>
</g>
<path d="M303.38 411.023C303.369 411.022 303.364 410.916 303.364 410.709C303.369 410.465 303.374 410.165 303.381 409.798C303.412 408.948 303.454 407.788 303.507 406.333C303.646 403.291 303.842 399.025 304.077 393.895L304.086 393.966C302.289 387.968 300.188 380.692 298.016 372.831C295.134 362.413 292.702 352.933 291.066 346.041C290.25 342.595 289.613 339.8 289.214 337.86C289.024 336.928 288.873 336.184 288.759 335.625C288.661 335.113 288.617 334.842 288.635 334.838C288.652 334.834 288.73 335.097 288.861 335.602C288.999 336.155 289.182 336.891 289.411 337.814C289.899 339.788 290.583 342.555 291.423 345.952C293.15 352.817 295.636 362.277 298.517 372.691C300.689 380.548 302.757 387.832 304.498 393.842L304.509 393.879L304.507 393.913C304.196 399.041 303.938 403.305 303.753 406.345C303.651 407.797 303.57 408.956 303.51 409.804C303.478 410.17 303.451 410.469 303.43 410.712C303.408 410.919 303.391 411.024 303.38 411.023Z" fill="#263238"/>
<path d="M409.015 252.456C408.985 252.536 407.935 252.164 406.2 251.734C404.467 251.301 402.03 250.866 399.308 250.781C396.585 250.703 394.126 250.992 392.37 251.32C390.612 251.645 389.543 251.954 389.517 251.872C389.506 251.838 389.763 251.727 390.238 251.555C390.712 251.377 391.414 251.17 392.294 250.96C394.052 250.535 396.552 250.181 399.323 250.26C402.093 250.347 404.567 250.849 406.296 251.378C407.162 251.641 407.851 251.89 408.313 252.095C408.778 252.296 409.028 252.422 409.015 252.456Z" fill="#263238"/>
<path d="M375.568 234.019C375.583 234.028 375.491 234.207 375.301 234.538C375.077 234.915 374.796 235.39 374.45 235.972C373.699 237.21 372.585 238.984 371.175 241.156C368.346 245.491 364.299 251.397 359.512 257.684C355.66 262.752 351.93 267.299 348.874 270.862L348.66 271.112L348.525 270.815C347.073 267.631 345.871 264.994 344.999 263.081C344.611 262.197 344.297 261.483 344.054 260.932C343.843 260.435 343.741 260.168 343.76 260.159C343.779 260.15 343.92 260.399 344.167 260.879C344.436 261.418 344.784 262.116 345.215 262.98C346.127 264.873 347.385 267.484 348.905 270.637L348.556 270.591C351.559 266.991 355.254 262.429 359.099 257.369C363.878 251.092 367.965 245.23 370.87 240.952C372.28 238.848 373.436 237.124 374.28 235.863C374.659 235.302 374.968 234.845 375.213 234.482C375.431 234.169 375.553 234.009 375.568 234.019Z" fill="#263238"/>
<path d="M399.875 395.265C399.732 395.249 400.19 390.059 400.898 383.673C401.606 377.285 402.296 372.121 402.439 372.137C402.582 372.153 402.124 377.342 401.415 383.73C400.708 390.116 400.018 395.281 399.875 395.265Z" fill="#263238"/>
<path d="M327.499 393.905C327.642 393.89 328.175 397.791 328.69 402.617C329.205 407.445 329.507 411.37 329.364 411.385C329.221 411.4 328.688 407.5 328.173 402.672C327.657 397.846 327.356 393.92 327.499 393.905Z" fill="#263238"/>
<path d="M380.909 279.69C380.778 278.863 379.633 278.409 378.97 278.92L378.903 278.976C378.279 279.534 378.516 280.742 379.304 281.023C380.093 281.303 381.04 280.516 380.909 279.69Z" fill="white"/>
<path d="M370.482 254.275C370.351 253.448 369.206 252.994 368.543 253.505L368.476 253.561C367.852 254.119 368.089 255.327 368.877 255.608C369.666 255.888 370.613 255.102 370.482 254.275Z" fill="white"/>
<path d="M346.553 274.739C346.422 273.912 345.277 273.458 344.614 273.969L344.547 274.025C343.923 274.583 344.16 275.791 344.948 276.072C345.736 276.353 346.684 275.566 346.553 274.739Z" fill="white"/>
<path d="M320.685 264.463C320.554 263.636 319.409 263.182 318.746 263.693L318.679 263.749C318.055 264.307 318.292 265.515 319.08 265.796C319.868 266.077 320.816 265.289 320.685 264.463Z" fill="white"/>
<path d="M316.108 254.333C315.977 253.506 314.832 253.052 314.169 253.563L314.102 253.619C313.478 254.177 313.715 255.385 314.503 255.666C315.292 255.947 316.24 255.16 316.108 254.333Z" fill="white"/>
<path d="M318.095 242.628C317.964 241.801 316.819 241.347 316.156 241.858L316.089 241.914C315.465 242.472 315.702 243.68 316.49 243.961C317.279 244.241 318.227 243.454 318.095 242.628Z" fill="white"/>
<path d="M303.77 258.728C303.639 257.901 302.494 257.447 301.831 257.958L301.764 258.014C301.14 258.572 301.377 259.78 302.165 260.061C302.953 260.341 303.901 259.554 303.77 258.728Z" fill="white"/>
<path d="M336.954 263.371C336.823 262.544 335.678 262.09 335.015 262.601L334.948 262.657C334.324 263.215 334.561 264.423 335.349 264.704C336.138 264.984 337.086 264.197 336.954 263.371Z" fill="white"/>
<path d="M308.859 284.237C308.728 283.41 307.583 282.956 306.92 283.467L306.853 283.523C306.229 284.081 306.466 285.289 307.254 285.57C308.043 285.85 308.99 285.063 308.859 284.237Z" fill="white"/>
<path d="M283.141 344.258C283.01 343.431 281.865 342.977 281.202 343.488L281.135 343.544C280.511 344.102 280.748 345.31 281.536 345.591C282.325 345.871 283.272 345.084 283.141 344.258Z" fill="white"/>
<path d="M292.317 309.642C292.186 308.815 291.041 308.361 290.378 308.872L290.311 308.928C289.687 309.486 289.924 310.694 290.712 310.975C291.501 311.255 292.448 310.468 292.317 309.642Z" fill="white"/>
<path d="M359.955 248.856C359.824 248.029 358.679 247.575 358.016 248.086L357.949 248.142C357.325 248.7 357.562 249.908 358.35 250.189C359.139 250.47 360.086 249.683 359.955 248.856Z" fill="white"/>
<path d="M392.236 317.785C392.105 316.958 390.96 316.504 390.297 317.015L390.23 317.071C389.606 317.629 389.843 318.837 390.631 319.118C391.419 319.398 392.367 318.611 392.236 317.785Z" fill="white"/>
<path d="M404.814 258.467C404.683 257.64 403.538 257.186 402.875 257.697L402.808 257.753C402.184 258.311 402.421 259.519 403.209 259.8C403.998 260.081 404.945 259.294 404.814 258.467Z" fill="white"/>
<path d="M399.875 297.313C399.744 296.486 398.599 296.032 397.936 296.543L397.869 296.599C397.245 297.157 397.482 298.365 398.27 298.646C399.059 298.926 400.007 298.139 399.875 297.313Z" fill="white"/>
<path d="M371.669 325.362C371.538 324.535 370.393 324.081 369.73 324.592L369.663 324.648C369.039 325.206 369.276 326.414 370.064 326.695C370.852 326.975 371.8 326.189 371.669 325.362Z" fill="white"/>
<path d="M372.856 302.013C372.725 301.186 371.58 300.732 370.917 301.243L370.85 301.299C370.226 301.857 370.463 303.065 371.251 303.346C372.039 303.626 372.987 302.84 372.856 302.013Z" fill="white"/>
<path d="M389.874 258.67C389.743 257.843 388.598 257.389 387.935 257.9L387.868 257.956C387.244 258.514 387.481 259.722 388.269 260.003C389.058 260.283 390.005 259.496 389.874 258.67Z" fill="white"/>
<path d="M366.965 236.047C366.834 235.22 365.689 234.766 365.026 235.277L364.959 235.333C364.335 235.891 364.572 237.099 365.36 237.38C366.149 237.66 367.096 236.873 366.965 236.047Z" fill="white"/>
<path d="M366.134 272.515C366.003 271.688 364.858 271.234 364.195 271.745L364.128 271.801C363.504 272.359 363.741 273.567 364.529 273.848C365.317 274.129 366.265 273.342 366.134 272.515Z" fill="white"/>
<path d="M336.887 383.765C336.756 382.938 335.611 382.484 334.948 382.995L334.881 383.051C334.257 383.609 334.494 384.817 335.282 385.098C336.071 385.379 337.019 384.592 336.887 383.765Z" fill="white"/>
<path d="M303.339 365.471C303.208 364.644 302.063 364.19 301.4 364.701L301.333 364.757C300.709 365.315 300.946 366.523 301.734 366.804C302.523 367.085 303.471 366.298 303.339 365.471Z" fill="white"/>
<path d="M276.213 374.438C276.082 373.611 274.937 373.157 274.274 373.668L274.207 373.724C273.583 374.282 273.82 375.49 274.608 375.771C275.397 376.051 276.344 375.264 276.213 374.438Z" fill="white"/>
<path d="M273.31 389.887C273.179 389.06 272.034 388.606 271.371 389.117L271.304 389.173C270.68 389.731 270.917 390.939 271.705 391.22C272.494 391.501 273.441 390.714 273.31 389.887Z" fill="white"/>
<path d="M298.743 395.063C298.612 394.236 297.467 393.782 296.804 394.293L296.737 394.349C296.113 394.907 296.35 396.115 297.138 396.396C297.926 396.676 298.874 395.889 298.743 395.063Z" fill="white"/>
<path d="M290.238 360.464C290.107 359.637 288.962 359.183 288.299 359.694L288.232 359.75C287.608 360.308 287.845 361.516 288.633 361.797C289.422 362.078 290.37 361.291 290.238 360.464Z" fill="white"/>
<path d="M321.442 369.256C321.311 368.429 320.166 367.975 319.503 368.486L319.436 368.542C318.812 369.1 319.049 370.308 319.837 370.589C320.625 370.87 321.573 370.082 321.442 369.256Z" fill="white"/>
<path d="M395.615 360.406C395.484 359.579 394.339 359.125 393.676 359.636L393.609 359.692C392.985 360.25 393.222 361.458 394.01 361.739C394.798 362.02 395.746 361.233 395.615 360.406Z" fill="white"/>
<path d="M349.721 404.383C349.59 403.556 348.445 403.102 347.782 403.613L347.715 403.669C347.091 404.227 347.328 405.435 348.116 405.716C348.905 405.996 349.852 405.209 349.721 404.383Z" fill="white"/>
<path d="M369.295 379.903C369.164 379.076 368.019 378.622 367.356 379.133L367.289 379.189C366.665 379.747 366.902 380.955 367.69 381.236C368.479 381.517 369.426 380.729 369.295 379.903Z" fill="white"/>
<path d="M380.921 399.812C380.79 398.985 379.645 398.531 378.982 399.042L378.915 399.098C378.291 399.656 378.528 400.864 379.316 401.145C380.105 401.426 381.052 400.639 380.921 399.812Z" fill="white"/>
<path d="M348.571 295.55C348.44 294.723 347.295 294.269 346.632 294.78L346.565 294.836C345.941 295.394 346.178 296.602 346.966 296.883C347.755 297.164 348.702 296.377 348.571 295.55Z" fill="white"/>
<path d="M374.895 346.376C374.764 345.549 373.619 345.095 372.956 345.606L372.889 345.662C372.265 346.22 372.502 347.428 373.29 347.709C374.079 347.99 375.026 347.203 374.895 346.376Z" fill="white"/>
<path d="M366.358 365.629C366.227 364.802 365.082 364.348 364.419 364.859L364.352 364.915C363.728 365.473 363.965 366.681 364.753 366.962C365.542 367.242 366.49 366.455 366.358 365.629Z" fill="white"/>
<path d="M394.428 381.091C394.297 380.264 393.152 379.81 392.489 380.321L392.422 380.377C391.798 380.935 392.035 382.143 392.823 382.424C393.611 382.705 394.559 381.918 394.428 381.091Z" fill="white"/>
<path d="M317.62 403.415C317.489 402.588 316.344 402.134 315.681 402.645L315.614 402.701C314.99 403.259 315.227 404.467 316.015 404.748C316.804 405.029 317.751 404.242 317.62 403.415Z" fill="white"/>
<path d="M253.617 397.575C253.486 396.748 252.341 396.294 251.678 396.805L251.611 396.861C250.987 397.419 251.224 398.627 252.012 398.908C252.801 399.189 253.749 398.401 253.617 397.575Z" fill="white"/>
<path d="M309.979 387.063C309.848 386.236 308.703 385.782 308.04 386.293L307.973 386.349C307.349 386.907 307.586 388.115 308.374 388.396C309.163 388.677 310.111 387.89 309.979 387.063Z" fill="white"/>
<path d="M255.991 375.626C255.86 374.799 254.715 374.345 254.052 374.856L253.985 374.912C253.361 375.47 253.598 376.678 254.386 376.959C255.175 377.239 256.122 376.452 255.991 375.626Z" fill="white"/>
<path d="M346.197 339.329C346.066 338.502 344.921 338.048 344.258 338.559L344.191 338.615C343.567 339.173 343.804 340.381 344.592 340.662C345.381 340.943 346.328 340.156 346.197 339.329Z" fill="white"/>
<path d="M327.319 284.237C327.188 283.41 326.043 282.956 325.38 283.467L325.313 283.523C324.689 284.081 324.926 285.289 325.714 285.57C326.503 285.85 327.45 285.063 327.319 284.237Z" fill="white"/>
<path d="M322.602 332.013C322.471 331.186 321.326 330.732 320.663 331.243L320.596 331.299C319.972 331.857 320.209 333.065 320.997 333.346C321.786 333.627 322.734 332.84 322.602 332.013Z" fill="white"/>
<path d="M314.921 316.429C314.79 315.602 313.645 315.148 312.982 315.659L312.915 315.715C312.291 316.273 312.528 317.481 313.316 317.762C314.105 318.043 315.053 317.256 314.921 316.429Z" fill="white"/>
<path d="M348.888 365.413C348.757 364.586 347.612 364.132 346.949 364.643L346.882 364.699C346.258 365.257 346.495 366.465 347.283 366.746C348.072 367.027 349.019 366.24 348.888 365.413Z" fill="white"/>
<path d="M324.945 355.802C324.814 354.975 323.669 354.521 323.006 355.032L322.939 355.088C322.315 355.646 322.552 356.854 323.34 357.135C324.128 357.415 325.076 356.628 324.945 355.802Z" fill="white"/>
<path d="M335.194 303.047C335.063 302.22 333.918 301.766 333.255 302.277L333.188 302.333C332.564 302.891 332.801 304.099 333.589 304.38C334.378 304.66 335.325 303.873 335.194 303.047Z" fill="white"/>
<path d="M298.743 340.401C298.612 339.574 297.467 339.12 296.804 339.631L296.737 339.687C296.113 340.245 296.35 341.453 297.138 341.734C297.926 342.015 298.874 341.228 298.743 340.401Z" fill="white"/>
<path d="M355.005 323.256C354.874 322.429 353.729 321.975 353.066 322.486L353 322.542C352.376 323.1 352.613 324.308 353.401 324.589C354.189 324.87 355.137 324.082 355.005 323.256Z" fill="white"/>
<path d="M407.188 278.501C407.057 277.674 405.912 277.22 405.249 277.731L405.182 277.787C404.558 278.345 404.795 279.553 405.583 279.834C406.371 280.115 407.319 279.328 407.188 278.501Z" fill="white"/>
<path d="M386 244.612C385.869 243.785 384.724 243.331 384.061 243.842L383.994 243.898C383.37 244.456 383.607 245.664 384.395 245.945C385.184 246.226 386.132 245.439 386 244.612Z" fill="white"/>
<path d="M344.936 248.856C344.805 248.029 343.66 247.575 342.997 248.086L342.93 248.142C342.306 248.7 342.543 249.908 343.331 250.189C344.119 250.47 345.067 249.683 344.936 248.856Z" fill="white"/>
<path d="M303.052 127.209C295.175 132.221 292.032 142.723 293.534 148.93C294.291 152.058 295.711 155.206 295.091 158.364C294.556 161.093 292.594 163.276 291.125 165.638C286.228 173.515 287.095 184.539 293.164 191.553C299.233 198.567 310.017 201.01 318.517 197.296" fill="#263238"/>
<path d="M298.391 168.196C279.232 126.056 324.806 104.885 349.674 111.909C373.045 118.51 383.013 130.141 386.859 145.772C390.706 161.41 390.522 178.346 384.394 193.24C381.372 200.583 375.93 208.045 368.042 208.962" fill="#263238"/>
<path d="M320.839 271.108C320.508 250.974 320.274 223.317 320.267 223.432C320.267 223.432 302.961 220.558 299.375 197.978C297.592 186.749 298.156 168.337 299.104 153.287C299.958 139.741 308.933 123.12 322.431 124.548L364.578 135.201C368.678 135.635 371.765 139.134 371.684 143.256L368.938 230.434" fill="#FFBE9D"/>
<path d="M306.64 167.077C306.568 168.597 307.796 169.91 309.382 170.014C310.964 170.118 312.308 168.973 312.379 167.454C312.45 165.935 311.223 164.62 309.641 164.516C308.055 164.411 306.711 165.557 306.64 167.077Z" fill="#263238"/>
<path d="M336.56 167.077C336.488 168.596 337.716 169.91 339.301 170.013C340.883 170.117 342.227 168.972 342.299 167.453C342.37 165.934 341.143 164.619 339.561 164.515C337.975 164.411 336.631 165.557 336.56 167.077Z" fill="#263238"/>
<path d="M303.523 161.816C303.869 162.206 306.116 160.656 309.23 160.768C312.342 160.835 314.575 162.513 314.926 162.143C315.097 161.98 314.754 161.286 313.783 160.528C312.828 159.774 311.18 159.017 309.24 158.96C307.3 158.906 305.644 159.566 304.682 160.266C303.699 160.97 303.352 161.641 303.523 161.816Z" fill="#263238"/>
<path d="M333.096 162.561C333.458 162.937 335.647 161.304 338.761 161.299C341.873 161.248 344.168 162.841 344.504 162.458C344.669 162.288 344.304 161.608 343.301 160.888C342.318 160.17 340.643 159.475 338.702 159.492C336.761 159.512 335.131 160.234 334.196 160.969C333.243 161.708 332.92 162.392 333.096 162.561Z" fill="#263238"/>
<path d="M322.42 186.557C322.434 186.38 320.497 186.046 317.359 185.644C316.563 185.562 315.81 185.404 315.676 184.861C315.489 184.286 315.821 183.428 316.207 182.502C316.955 180.577 317.738 178.558 318.56 176.443C321.828 167.816 324.193 160.722 323.845 160.594C323.497 160.466 320.564 167.354 317.297 175.981C316.511 178.108 315.758 180.136 315.043 182.076C314.742 182.98 314.224 184.006 314.63 185.199C314.844 185.794 315.428 186.225 315.939 186.363C316.449 186.518 316.897 186.527 317.291 186.551C320.448 186.72 322.408 186.734 322.42 186.557Z" fill="#263238"/>
<path d="M320.267 223.432C320.267 223.432 335.458 224.411 350.508 215.365C350.508 215.365 342.867 231.074 320.267 228.961V223.432Z" fill="#EB996E"/>
<path d="M332.327 158.129C332.634 158.976 335.746 158.574 339.401 159.015C343.067 159.382 346.014 160.452 346.499 159.692C346.716 159.328 346.202 158.532 345.01 157.711C343.829 156.892 341.943 156.114 339.748 155.869C337.553 155.629 335.543 155.978 334.212 156.519C332.871 157.061 332.195 157.727 332.327 158.129Z" fill="#263238"/>
<path d="M304.243 153.985C304.792 154.693 306.938 153.958 309.52 153.924C312.1 153.799 314.287 154.399 314.791 153.659C315.012 153.299 314.667 152.591 313.712 151.921C312.771 151.253 311.197 150.708 309.422 150.761C307.649 150.817 306.112 151.459 305.214 152.184C304.302 152.911 304.002 153.64 304.243 153.985Z" fill="#263238"/>
<path d="M367.811 172.983C368.142 172.823 379.897 167.624 380.035 181.143C380.173 194.662 366.572 192.012 366.544 191.624C366.517 191.236 367.811 172.983 367.811 172.983Z" fill="#FFBE9D"/>
<path d="M370.622 186.46C370.681 186.416 370.859 186.622 371.259 186.801C371.649 186.974 372.318 187.091 373.02 186.819C374.443 186.28 375.622 184 375.663 181.563C375.685 180.332 375.415 179.163 374.969 178.198C374.546 177.213 373.899 176.529 373.179 176.408C372.462 176.25 371.957 176.686 371.796 177.068C371.619 177.448 371.708 177.717 371.636 177.741C371.598 177.775 371.344 177.518 371.447 176.958C371.5 176.689 371.655 176.368 371.97 176.105C372.292 175.838 372.768 175.699 373.269 175.748C374.312 175.809 375.26 176.759 375.75 177.819C376.298 178.883 376.63 180.197 376.605 181.579C376.546 184.304 375.178 186.867 373.229 187.452C372.281 187.709 371.484 187.431 371.071 187.116C370.65 186.786 370.576 186.485 370.622 186.46Z" fill="#EB996E"/>
<path d="M317.929 117.88C310.408 121.767 307.312 137.154 310.424 145.027C313.536 152.9 321.922 156.746 330.192 158.558C338.462 160.37 346.57 160.584 354.726 158.315C355.294 163.8 358.581 169.43 363.903 170.877C370.948 172.793 378.049 166.341 379.617 159.211C381.185 152.08 378.835 144.736 376.514 137.814" fill="#263238"/>
<path d="M377.577 166.934C377.609 166.976 377.239 167.327 376.535 167.919C375.828 168.508 374.792 169.348 373.417 170.271C372.042 171.181 370.304 172.195 368.161 172.814C366.046 173.426 363.455 173.648 360.987 172.709C358.524 171.772 356.705 169.907 355.557 168.015C354.392 166.1 353.87 164.133 353.611 162.496C353.358 160.849 353.361 159.502 353.399 158.581C353.442 157.658 353.525 157.153 353.575 157.155C353.723 157.152 353.563 159.21 354.154 162.399C354.474 163.978 355.035 165.849 356.167 167.634C357.286 169.406 359.007 171.123 361.263 171.978C363.518 172.839 365.938 172.668 367.967 172.12C370.016 171.569 371.73 170.64 373.119 169.804C375.88 168.079 377.497 166.823 377.577 166.934Z" fill="#263238"/>
<path d="M323.341 195.239C323.795 196.389 324.259 197.557 325.02 198.531C325.781 199.505 326.894 200.277 328.129 200.336C329.445 200.399 330.714 199.62 331.448 198.526C332.182 197.432 332.432 196.068 332.373 194.752C332.32 193.562 331.775 192.142 330.592 192.001C330.1 191.943 329.615 192.133 329.156 192.319C327.084 193.159 325.011 194 322.939 194.84" fill="#EB996E"/>
<path d="M325.824 200.354C325.856 200.159 327.22 200.713 329.14 199.944C330.069 199.57 331.086 198.83 331.647 197.667C332.207 196.517 332.318 194.961 331.729 193.6C331.592 193.259 331.387 192.948 331.187 192.671C330.941 192.413 330.986 192.424 330.718 192.464C330.465 192.532 330.056 192.725 329.722 192.855C329.376 192.996 329.035 193.135 328.701 193.271C327.37 193.809 326.165 194.28 325.148 194.66C323.112 195.42 321.823 195.821 321.763 195.679C321.703 195.538 322.883 194.883 324.84 193.938C325.819 193.465 326.991 192.92 328.3 192.33C328.629 192.183 328.965 192.032 329.306 191.88C329.669 191.731 329.946 191.568 330.441 191.412C330.684 191.344 331.028 191.305 331.363 191.439C331.691 191.572 331.896 191.795 332.049 191.981C332.327 192.351 332.572 192.731 332.748 193.16C333.479 194.859 333.303 196.74 332.558 198.134C331.798 199.558 330.502 200.358 329.403 200.685C328.285 201.03 327.321 200.947 326.709 200.79C326.089 200.626 325.799 200.416 325.824 200.354Z" fill="#263238"/>
<path d="M382.971 163.729C381.586 163.632 370.421 165.077 371.3 185.832C372.121 205.217 385.721 200.948 390.061 193.65C394.172 186.736 396.547 164.682 382.971 163.729Z" fill="#455A64"/>
<path d="M389.874 166.181C389.859 166.181 389.842 165.994 389.822 165.635C389.805 165.231 389.783 164.707 389.756 164.054C389.716 162.621 389.66 160.624 389.591 158.142C389.489 153.044 389.347 145.964 389.183 137.787L389.433 138.034C387.592 138.037 385.657 138.039 383.677 138.042L383.935 137.777C383.977 139.322 384.021 140.952 384.066 142.606C384.259 150.395 384.439 157.648 384.589 163.719L384.593 163.897L384.421 163.937C381.831 164.544 379.783 166.05 378.492 167.754C377.177 169.46 376.523 171.273 376.124 172.761C375.726 174.261 375.59 175.48 375.514 176.306C375.477 176.72 375.457 177.038 375.446 177.253C375.433 177.468 375.426 177.579 375.414 177.579C375.403 177.58 375.387 177.468 375.378 177.253C375.367 177.037 375.365 176.716 375.381 176.298C375.416 175.463 375.511 174.23 375.878 172.7C376.248 171.182 376.876 169.322 378.207 167.541C379.511 165.763 381.637 164.162 384.319 163.512L384.151 163.731C383.977 157.661 383.768 150.408 383.544 142.62C383.501 140.966 383.458 139.336 383.417 137.791L383.41 137.525H383.675C385.655 137.528 387.59 137.53 389.431 137.533H389.679L389.682 137.779C389.772 145.957 389.85 153.039 389.906 158.137C389.914 160.62 389.92 162.617 389.925 164.051C389.918 164.704 389.912 165.228 389.908 165.633C389.901 165.993 389.889 166.181 389.874 166.181Z" fill="#455A64"/>
<path d="M382.969 137.783C382.969 137.783 377.131 124.117 363.216 117.374C356.476 114.108 351.434 112.423 346.548 111.194C346.548 111.194 354.665 109.267 367.801 115.111C373.77 117.766 379.783 121.225 383.759 126.408C386.285 129.7 389.438 136.134 389.433 137.784L382.969 137.783Z" fill="#455A64"/>
<path d="M346.949 303.249C346.944 303.243 347.028 303.151 347.198 302.976C347.365 302.798 347.63 302.549 347.953 302.198C348.61 301.506 349.55 300.452 350.652 298.996C351.757 297.543 352.997 295.669 354.299 293.398C355.604 291.128 356.957 288.454 358.431 285.464C361.38 279.487 364.794 272.241 368.325 263.939C370.094 259.79 371.894 255.378 373.686 250.734C374.13 249.571 374.578 248.396 375.031 247.209C375.48 246.021 375.941 244.798 376.638 243.664C377.323 242.528 378.318 241.524 379.542 240.904C380.15 240.591 380.831 240.354 381.576 240.387C381.947 240.417 382.326 240.54 382.638 240.772C382.959 241.003 383.152 241.341 383.313 241.671L383.346 241.738L383.329 241.817C383.229 242.274 383.085 242.741 382.791 243.15C382.503 243.562 382.035 243.864 381.543 243.968C380.545 244.171 379.594 243.854 378.753 243.456C376.947 242.703 375.875 240.562 376.283 238.611C376.471 237.629 377.083 236.735 377.906 236.169C378.727 235.599 379.736 235.3 380.748 235.359C381.737 235.422 382.822 235.825 383.372 236.806C383.655 237.285 383.624 237.992 383.268 238.436C382.935 238.889 382.479 239.161 382.001 239.363C380.31 240.034 378.278 239.442 377.208 238.004C376.672 237.285 376.449 236.351 376.559 235.482C376.651 234.608 377.028 233.781 377.598 233.125C378.167 232.468 378.961 231.99 379.849 231.88C380.721 231.793 381.651 232.037 382.281 232.716C382.597 233.051 382.773 233.526 382.759 233.993C382.755 234.47 382.514 234.923 382.182 235.225C381.513 235.833 380.595 236.052 379.737 235.884C378.845 235.695 378.204 235.025 377.79 234.319C377.376 233.595 377.172 232.798 377.058 232.012C376.858 230.451 376.88 228.808 377.589 227.348C377.97 226.643 378.497 225.985 379.293 225.663C380.073 225.353 380.931 225.434 381.668 225.739C382.383 226.051 383.096 226.7 383.133 227.59C383.196 228.457 382.588 229.231 381.865 229.544C381.149 229.886 380.27 229.901 379.564 229.51C378.864 229.134 378.387 228.463 378.143 227.755C377.878 227.053 377.896 226.243 378.007 225.567C378.098 224.866 378.226 224.165 378.469 223.491C378.701 222.824 379.108 222.161 379.682 221.724C380.24 221.28 380.875 220.955 381.565 220.788C381.899 220.717 382.286 220.649 382.666 220.776C383.028 220.896 383.328 221.11 383.581 221.359C383.831 221.612 384.036 221.908 384.169 222.245C384.305 222.572 384.356 222.988 384.203 223.35C383.907 224.109 383.063 224.356 382.415 224.34C381.729 224.349 381.071 224.076 380.537 223.71C379.464 222.95 378.774 221.775 378.529 220.563C378.261 219.353 378.398 218.07 378.949 217.001C379.237 216.476 379.588 215.985 380.072 215.626C380.547 215.266 381.1 215.04 381.67 214.937C382.238 214.846 382.851 214.882 383.371 215.176C383.882 215.465 384.26 216.006 384.289 216.594C384.328 217.782 383.408 218.715 382.404 218.993C381.329 219.277 380.298 218.695 379.685 217.971C379.049 217.233 378.72 216.309 378.659 215.412C378.574 213.592 379.29 212.06 379.638 210.624C380.045 209.187 380.417 207.872 380.752 206.688C381.424 204.343 381.948 202.513 382.311 201.247C382.49 200.643 382.629 200.174 382.729 199.836C382.826 199.519 382.888 199.36 382.888 199.36C382.888 199.36 382.86 199.529 382.78 199.851C382.692 200.193 382.569 200.667 382.412 201.277C382.071 202.549 381.579 204.387 380.948 206.744C380.626 207.932 380.269 209.25 379.878 210.691C379.537 212.14 378.849 213.682 378.95 215.393C379.013 216.23 379.33 217.094 379.921 217.768C380.483 218.432 381.43 218.926 382.318 218.674C383.186 218.441 383.994 217.568 383.94 216.621C383.917 216.159 383.61 215.722 383.195 215.49C382.772 215.252 382.24 215.216 381.732 215.301C381.223 215.396 380.72 215.604 380.3 215.927C379.878 216.24 379.55 216.701 379.292 217.178C378.792 218.157 378.666 219.352 378.922 220.477C379.154 221.607 379.803 222.684 380.774 223.366C381.268 223.698 381.819 223.923 382.418 223.915C382.994 223.926 383.619 223.702 383.802 223.192C384.005 222.709 383.681 222.084 383.271 221.669C383.058 221.458 382.802 221.285 382.533 221.197C382.278 221.107 381.976 221.155 381.666 221.221C380.445 221.536 379.284 222.367 378.899 223.646C378.675 224.269 378.552 224.942 378.466 225.624C378.358 226.322 378.354 226.961 378.585 227.599C378.801 228.22 379.215 228.787 379.79 229.092C380.346 229.402 381.069 229.393 381.66 229.109C382.258 228.841 382.697 228.254 382.649 227.615C382.631 226.98 382.089 226.457 381.474 226.187C380.847 225.928 380.101 225.865 379.476 226.121C378.859 226.36 378.356 226.953 378.032 227.572C377.397 228.873 377.36 230.45 377.557 231.939C377.666 232.684 377.861 233.425 378.229 234.064C378.591 234.689 379.161 235.249 379.84 235.383C380.525 235.523 381.319 235.325 381.828 234.852C382.368 234.397 382.373 233.564 381.896 233.058C381.429 232.542 380.625 232.312 379.903 232.392C379.176 232.482 378.48 232.889 377.985 233.464C376.977 234.596 376.685 236.453 377.624 237.694C378.527 238.932 380.364 239.464 381.801 238.878C382.206 238.711 382.605 238.461 382.841 238.13C383.085 237.805 383.101 237.404 382.908 237.047C382.506 236.309 381.584 235.924 380.713 235.876C378.942 235.753 377.095 236.972 376.786 238.712C376.433 240.428 377.36 242.327 378.972 242.992C379.754 243.371 380.638 243.635 381.425 243.469C382.234 243.322 382.676 242.537 382.827 241.721L382.842 241.866C382.609 241.299 382.134 240.921 381.538 240.888C380.944 240.86 380.326 241.059 379.767 241.349C378.63 241.925 377.709 242.845 377.055 243.923C376.39 245 375.934 246.194 375.484 247.38C375.028 248.567 374.576 249.743 374.13 250.906C372.325 255.551 370.51 259.963 368.725 264.11C365.162 272.409 361.71 279.645 358.718 285.607C357.223 288.588 355.846 291.257 354.515 293.523C353.186 295.79 351.919 297.657 350.787 299.1C348.527 301.996 346.949 303.249 346.949 303.249Z" fill="white"/>
<path d="M395.088 153.997C394.998 154.016 395.13 152.581 394.178 150.299C393.255 148.059 390.982 145.02 387 143.109C385.023 142.176 382.655 141.586 380.081 141.417C377.505 141.248 374.732 141.494 371.874 142.044C366.141 143.098 360.123 145.573 353.382 146.589C350.005 147.031 346.659 147.01 343.48 146.578C340.299 146.132 337.321 145.23 334.579 144.165C329.128 141.915 324.732 138.776 321.619 135.604C318.488 132.442 316.464 129.415 315.34 127.206C315.021 126.673 314.787 126.174 314.603 125.732C314.416 125.305 314.254 124.937 314.118 124.625C314.001 124.348 313.907 124.124 313.83 123.941C313.768 123.786 313.74 123.705 313.748 123.701C313.756 123.698 313.8 123.772 313.879 123.92C313.968 124.096 314.078 124.314 314.214 124.582C314.363 124.886 314.538 125.246 314.743 125.663C314.941 126.096 315.187 126.585 315.518 127.108C316.69 129.275 318.745 132.244 321.878 135.342C324.994 138.45 329.364 141.521 334.759 143.719C337.472 144.759 340.414 145.639 343.552 146.073C346.689 146.492 349.982 146.508 353.309 146.073C359.959 145.075 365.988 142.615 371.787 141.572C374.676 141.03 377.49 140.796 380.112 140.986C382.731 141.177 385.144 141.799 387.161 142.777C391.213 144.774 393.484 147.918 394.366 150.222C394.845 151.381 394.969 152.355 395.062 152.999C395.075 153.3 395.086 153.545 395.095 153.743C395.099 153.911 395.097 153.996 395.088 153.997Z" fill="#455A64"/>
<path d="M379.997 132.446C379.999 132.464 379.751 132.507 379.28 132.573C378.808 132.637 378.114 132.74 377.224 132.895C375.441 133.191 372.888 133.759 369.748 134.541C366.611 135.319 362.848 136.262 358.566 136.707C354.293 137.161 349.53 137.122 344.621 136.404C339.708 135.693 335.134 134.383 331.148 132.781C327.162 131.175 323.746 129.319 321.036 127.53C319.693 126.619 318.487 125.777 317.475 124.98C316.483 124.157 315.592 123.492 314.934 122.867C314.304 122.274 313.798 121.799 313.413 121.436C313.07 121.105 312.895 120.925 312.908 120.912C312.92 120.899 313.119 121.054 313.485 121.359C313.886 121.702 314.411 122.152 315.067 122.713C315.743 123.313 316.649 123.951 317.653 124.748C318.676 125.519 319.891 126.335 321.237 127.22C326.652 130.683 334.92 134.5 344.697 135.887C349.563 136.598 354.281 136.651 358.52 136.228C362.764 135.814 366.513 134.915 369.666 134.181C372.819 133.445 375.397 132.929 377.196 132.693C378.094 132.568 378.796 132.497 379.272 132.467C379.745 132.436 379.996 132.428 379.997 132.446Z" fill="#455A64"/>
<path d="M381.485 199.447C381.478 199.464 381.345 199.424 381.094 199.333C380.847 199.233 380.485 199.072 380.057 198.797C379.199 198.261 378.056 197.257 377.131 195.675C376.193 194.101 375.572 191.97 375.335 189.588C375.104 187.204 375.104 184.577 375.326 181.831C375.558 179.086 376.021 176.495 376.611 174.184C377.192 171.878 377.889 169.808 378.843 168.247C379.783 166.678 380.921 165.67 381.787 165.142C382.22 164.873 382.58 164.71 382.829 164.616C383.08 164.524 383.216 164.492 383.222 164.507C383.241 164.552 382.71 164.739 381.899 165.31C381.09 165.875 380.032 166.889 379.161 168.432C378.276 169.968 377.628 172.002 377.077 174.299C376.519 176.593 376.075 179.158 375.846 181.874C375.626 184.586 375.613 187.197 375.814 189.54C376.02 191.88 376.588 193.95 377.452 195.491C378.306 197.043 379.37 198.054 380.172 198.627C380.974 199.212 381.507 199.399 381.485 199.447Z" fill="#263238"/>
<path d="M337.686 202.321L327.43 204.334C325.884 204.637 324.385 203.63 324.082 202.084L324.008 201.706C323.705 200.16 324.712 198.661 326.257 198.358L336.513 196.345C338.059 196.042 339.558 197.049 339.861 198.595L339.935 198.973C340.239 200.518 339.232 202.017 337.686 202.321Z" fill="#455A64"/>
<path d="M338.471 197.885L385.917 183C387.091 182.632 388.342 183.28 388.717 184.452C389.107 185.667 388.402 186.962 387.17 187.295L338.653 200.402L338.471 197.885Z" fill="#455A64"/>
<path d="M373.54 191.342C373.53 191.307 374.09 191.112 375.112 190.789C376.222 190.451 377.684 190.006 379.45 189.468C381.27 188.906 383.505 188.313 385.869 187.538C386.44 187.317 386.994 187.02 387.423 186.582C387.835 186.156 388.102 185.54 388.091 184.932C388.091 184.322 387.702 183.774 387.111 183.573C386.517 183.375 385.807 183.463 385.128 183.633C379.613 185.408 374.624 187.013 370.903 188.21C369.139 188.755 367.679 189.206 366.57 189.549C365.543 189.854 364.97 190.006 364.959 189.972C364.948 189.938 365.499 189.72 366.506 189.356C367.601 188.973 369.044 188.469 370.787 187.86C374.42 186.626 379.4 184.92 385 183.128C385.724 182.951 386.51 182.83 387.283 183.084C388.064 183.333 388.617 184.136 388.602 184.919C388.608 185.694 388.286 186.407 387.779 186.93C387.272 187.439 386.649 187.758 386.042 187.986C383.59 188.763 381.403 189.299 379.552 189.822C377.767 190.295 376.29 190.687 375.168 190.984C374.129 191.247 373.55 191.376 373.54 191.342Z" fill="#263238"/>
<path d="M295.958 155C297.583 160.702 291.787 165.591 289.746 171.159C287.773 176.542 289.453 182.574 291.882 187.767C294.31 192.96 297.508 197.887 298.751 203.483C301.818 217.283 289.34 232.149 291.717 246.084C292.583 251.159 294.626 256.457 296.399 261.291C298.172 266.125 298.047 270.547 296.399 275.424C293.702 283.405 289.124 287.168 285.899 294.951C284.25 298.931 284.38 303.389 284.463 307.696C284.546 312.003 284.515 316.494 282.599 320.352C280.683 324.21 276.295 327.192 272.135 326.075C276.489 331.194 284.528 332.724 290.458 329.563C295.929 326.646 298.99 320.721 301.609 315.101C314.291 287.889 320.998 285.592 320.65 255.572C320.628 253.64 320.266 223.573 320.266 223.573C320.266 223.573 315.517 222.307 312.78 220.418C298.615 210.642 298.099 193.219 298.211 179.716" fill="#263238"/>
<path d="M324.303 246.083V257.412C324.303 257.412 315.588 301.857 312.974 326.549C310.36 351.241 309.918 357.755 309.918 357.755C309.918 357.755 316.17 367.508 329.242 350.95C342.314 334.392 344.638 331.778 349.867 331.487C349.867 331.487 343.476 262.059 343.767 259.445C344.057 256.831 346.091 254.507 346.091 254.507L324.303 246.083Z" fill="#FFBE9D"/>
<path d="M341.442 220.519C341.442 220.519 327.208 239.401 326.046 242.016C324.884 244.63 324.303 246.083 324.303 246.083L346.09 254.507L367.296 231.267L375.139 210.642L372.815 186.241C372.815 186.241 368.167 185.951 367.296 190.017C366.425 194.084 366.715 197.86 366.715 197.86L360.206 192.631L349.721 189.436C349.721 189.436 347.252 193.503 351.319 195.536C355.386 197.57 356.548 197.57 356.548 197.57L360.207 203.961L358.608 211.121L351.193 204.168C349.705 202.773 347.436 202.631 345.787 203.831L340.996 207.314L336.505 205.308L327.79 212.966L324.304 216.161C324.304 216.161 326.628 220.518 331.276 218.485C335.924 216.451 335.924 216.451 335.924 216.451L341.442 220.519Z" fill="#FFBE9D"/>
<path d="M324.303 249.906C324.303 249.906 324.285 249.701 324.298 249.301C324.311 248.901 324.346 248.305 324.441 247.528C324.539 246.752 324.69 245.791 324.986 244.681C325.309 243.585 325.675 242.283 326.514 241.023C329.769 236.018 334.901 229.058 341.296 220.41L341.334 220.666C339.609 219.401 337.742 218.031 335.806 216.61L336.001 216.632C335.061 217.045 334.103 217.466 333.128 217.895C332.148 218.303 331.19 218.825 330.067 219.088C328.962 219.341 327.719 219.259 326.666 218.702C325.599 218.175 324.739 217.308 324.11 216.264L324.025 216.123L324.155 216.001C327.902 212.485 332.067 208.926 336.346 205.13L336.475 205.016L336.624 205.104C337.822 205.811 339.15 206.596 340.492 207.389L340.236 207.395C341.723 206.417 343.233 205.423 344.763 204.416C345.545 203.914 346.262 203.402 347.112 202.898C348.023 202.433 349.194 202.532 350.024 203.153C352.9 205.583 355.845 208.071 358.842 210.603L358.427 210.742C358.907 208.589 359.427 206.258 359.952 203.905L359.98 204.089C358.823 202.069 357.577 199.893 356.32 197.699L356.545 197.83C355.855 197.755 355.331 197.547 354.74 197.343C354.166 197.132 353.598 196.891 353.03 196.638C352.461 196.386 351.898 196.112 351.333 195.834C351.05 195.694 350.767 195.51 350.483 195.348C350.234 195.128 349.939 194.96 349.73 194.689C349.061 193.982 348.673 192.984 348.722 192.019C348.744 191.049 349.032 190.14 349.495 189.3L349.592 189.125L349.794 189.187C353.336 190.267 356.833 191.334 360.278 192.384L360.326 192.399L360.365 192.43C362.562 194.196 364.731 195.94 366.872 197.661L366.459 197.879C366.322 195.246 366.505 192.655 367.013 190.145C367.232 188.863 367.994 187.599 369.132 186.928C370.256 186.233 371.545 185.97 372.829 185.994L373.038 185.998L373.059 186.216C373.876 194.89 374.645 203.063 375.357 210.62L375.362 210.671L375.344 210.719C372.437 218.322 369.801 225.216 367.464 231.33L367.452 231.362L367.429 231.387C360.456 238.977 354.845 245.086 350.963 249.311C349.03 251.399 347.529 253.021 346.497 254.135C345.993 254.672 345.605 255.084 345.329 255.377C345.064 255.655 344.919 255.788 344.919 255.788C344.919 255.788 345.039 255.631 345.291 255.342C345.558 255.041 345.933 254.617 346.421 254.066C347.437 252.937 348.915 251.293 350.817 249.178C354.671 244.927 360.241 238.781 367.163 231.144L367.128 231.201C369.444 225.079 372.054 218.176 374.934 210.562L374.921 210.66C374.193 203.105 373.406 194.934 372.571 186.261L372.8 186.483C371.64 186.462 370.398 186.718 369.399 187.346C368.377 187.959 367.717 189.043 367.506 190.244C367.011 192.698 366.834 195.275 366.969 197.837L366.999 198.412L366.555 198.055C364.413 196.336 362.242 194.593 360.044 192.829L360.13 192.874C356.684 191.825 353.186 190.759 349.644 189.681L349.942 189.567C349.536 190.303 349.257 191.175 349.245 192.025C349.204 192.883 349.535 193.713 350.114 194.332C350.29 194.569 350.562 194.718 350.78 194.916C351.044 195.064 351.288 195.226 351.566 195.364C352.125 195.64 352.683 195.911 353.244 196.159C354.344 196.64 355.524 197.149 356.547 197.306L356.712 197.331L356.772 197.437C358.028 199.632 359.273 201.808 360.429 203.828L360.479 203.915L360.457 204.013C359.931 206.366 359.409 208.697 358.928 210.849L358.836 211.262L358.513 210.988C355.528 208.46 352.595 205.977 349.729 203.55C349.048 203.039 348.083 202.955 347.333 203.337C346.588 203.779 345.794 204.334 345.035 204.821C343.503 205.826 341.991 206.817 340.503 207.793L340.377 207.876L340.247 207.799C338.906 207.004 337.579 206.216 336.383 205.507L336.661 205.481C332.377 209.267 328.203 212.815 324.451 216.317L324.496 216.054C325.061 216.997 325.886 217.84 326.858 218.316C327.823 218.83 328.948 218.907 329.979 218.677C331.007 218.445 331.984 217.927 332.966 217.52C333.943 217.095 334.902 216.677 335.844 216.267L335.948 216.222L336.039 216.289C337.969 217.717 339.83 219.095 341.55 220.367L341.698 220.476L341.588 220.623C335.159 229.238 329.979 236.172 326.684 241.124C325.849 242.346 325.468 243.635 325.133 244.716C324.824 245.814 324.657 246.767 324.543 247.537C324.432 248.308 324.38 248.901 324.35 249.299C324.32 249.702 324.303 249.906 324.303 249.906Z" fill="#EB996E"/>
<path d="M351.263 224.892C351.159 224.876 351.544 223.351 351.703 220.876C351.754 219.649 351.684 218.142 351.016 216.678C350.352 215.211 349.041 213.935 347.546 212.781C344.53 210.454 341.622 208.58 339.482 207.289C338.481 206.7 337.629 206.198 336.929 205.786C336.324 205.433 335.993 205.229 336.01 205.196C336.026 205.165 336.388 205.308 337.023 205.607C337.659 205.905 338.566 206.364 339.666 206.971C341.865 208.186 344.823 210.022 347.866 212.371C349.382 213.541 350.761 214.89 351.453 216.481C352.145 218.066 352.169 219.647 352.071 220.9C351.965 222.165 351.737 223.162 351.579 223.846C351.413 224.527 351.297 224.899 351.263 224.892Z" fill="#EB996E"/>
<path d="M366.51 215.828C366.431 215.808 366.642 214.82 366.88 213.215C367.119 211.61 367.346 209.378 367.328 206.906C367.304 204.433 367.039 202.205 366.773 200.604C366.508 199.003 366.281 198.019 366.359 197.997C366.419 197.98 366.773 198.933 367.134 200.534C367.496 202.133 367.824 204.391 367.848 206.901C367.867 209.411 367.577 211.673 367.242 213.278C366.908 214.885 366.57 215.844 366.51 215.828Z" fill="#EB996E"/>
<path d="M269.402 141.734L258.978 123.363C263.589 115.878 266.255 107.066 266.255 97.629C266.255 70.491 244.255 48.491 217.117 48.491C189.979 48.491 167.979 70.491 167.979 97.629C167.979 124.767 189.979 146.767 217.117 146.767C228.449 146.767 238.877 142.921 247.189 136.477L247.172 136.499L269.402 141.734Z" fill="white"/>
<path d="M269.402 141.734C268.493 141.525 261.362 139.889 247.142 136.626L246.947 136.581L247.069 136.421L247.086 136.399L247.268 136.58C244.465 138.749 241.108 140.887 237.162 142.667C233.212 144.417 228.686 145.846 223.69 146.51C221.196 146.828 218.59 147.033 215.912 146.901C214.574 146.825 213.212 146.792 211.838 146.677C210.473 146.471 209.09 146.261 207.688 146.049C202.127 144.95 196.441 142.838 191.137 139.546C185.837 136.266 180.929 131.812 176.996 126.34C173.069 120.878 170.091 114.402 168.697 107.365C167.317 100.338 167.432 92.806 169.278 85.516C171.137 78.252 174.608 71.156 179.805 65.318L181.811 63.111C182.47 62.369 183.257 61.757 183.971 61.076C184.719 60.432 185.394 59.703 186.198 59.134C186.985 58.545 187.771 57.958 188.555 57.372C189.318 56.755 190.159 56.258 190.995 55.758C191.828 55.252 192.658 54.748 193.487 54.245C194.359 53.822 195.228 53.399 196.096 52.978C196.971 52.575 197.812 52.097 198.729 51.807C205.863 48.974 213.472 47.896 220.744 48.423C228.019 48.946 234.98 51.033 240.952 54.394C246.943 57.728 251.995 62.18 255.895 67.153C259.807 72.128 262.563 77.616 264.271 83.081C265.967 88.571 266.427 94.017 266.409 99.058C266.264 104.111 265.346 108.768 264.007 112.854C262.665 116.946 260.903 120.467 259.083 123.429L259.085 123.302C265.701 135.121 268.966 140.955 269.402 141.734C268.957 140.961 265.623 135.165 258.869 123.425L258.833 123.362L258.872 123.298C260.665 120.34 262.4 116.832 263.716 112.759C265.029 108.693 265.923 104.065 266.05 99.048C266.05 94.043 265.579 88.641 263.883 83.201C262.176 77.786 259.431 72.352 255.545 67.429C251.671 62.508 246.658 58.106 240.721 54.813C234.802 51.492 227.909 49.436 220.707 48.924C213.506 48.409 205.978 49.482 198.92 52.287C198.012 52.573 197.18 53.047 196.315 53.447C195.457 53.864 194.597 54.282 193.734 54.701C192.914 55.199 192.093 55.699 191.269 56.199C190.442 56.694 189.609 57.186 188.855 57.797C188.079 58.377 187.302 58.958 186.523 59.541C185.727 60.104 185.061 60.826 184.32 61.463C183.613 62.137 182.834 62.742 182.183 63.477L180.2 65.66C175.057 71.436 171.622 78.457 169.779 85.643C167.95 92.854 167.83 100.31 169.19 107.267C170.563 114.233 173.505 120.647 177.386 126.061C181.275 131.485 186.128 135.905 191.374 139.165C196.623 142.437 202.254 144.543 207.766 145.646C209.156 145.86 210.528 146.071 211.881 146.279C213.243 146.397 214.595 146.432 215.922 146.512C218.579 146.65 221.165 146.454 223.642 146.147C228.603 145.505 233.101 144.102 237.034 142.379C240.962 140.626 244.309 138.517 247.109 136.375L247.894 135.774L247.291 136.556L247.274 136.578L247.201 136.373C261.384 139.798 268.496 141.515 269.402 141.734Z" fill="#263238"/>
<path d="M206.467 97.629C206.467 99.833 204.681 101.619 202.477 101.619C200.273 101.619 198.487 99.833 198.487 97.629C198.487 95.426 200.273 93.64 202.477 93.64C204.681 93.64 206.467 95.426 206.467 97.629Z" fill="#263238"/>
<path d="M222.433 97.629C222.433 99.833 220.647 101.619 218.443 101.619C216.239 101.619 214.453 99.833 214.453 97.629C214.453 95.426 216.239 93.64 218.443 93.64C220.647 93.64 222.433 95.426 222.433 97.629Z" fill="#263238"/>
<path d="M238.358 95.634C239.46 97.542 238.806 99.982 236.898 101.084C234.99 102.186 232.55 101.532 231.448 99.624C230.346 97.716 231 95.276 232.908 94.174C234.816 93.073 237.256 93.726 238.358 95.634Z" fill="#263238"/>
<path d="M466.044 411.142C466.044 411.286 364.385 411.402 239.011 411.402C113.593 411.402 11.956 411.285 11.956 411.142C11.956 410.999 113.593 410.882 239.011 410.882C364.385 410.882 466.044 410.998 466.044 411.142Z" fill="#263238"/>
<path d="M337.555 411.385C337.555 411.385 344.337 399.803 358.943 399.306C373.549 398.809 380.853 411.385 380.853 411.385H337.555Z" fill="#455A64"/>
<path d="M365.546 411.023C365.439 411.023 365.413 410.166 365.118 408.843C364.829 407.521 364.189 405.741 363.034 404.032C361.87 402.328 360.451 401.077 359.329 400.322C358.207 399.56 357.42 399.221 357.46 399.121C357.481 399.056 358.339 399.248 359.568 399.94C360.794 400.623 362.341 401.886 363.561 403.674C364.773 405.467 365.377 407.37 365.561 408.762C365.751 410.159 365.614 411.028 365.546 411.023Z" fill="#263238"/>
<path d="M328.513 410.855L328.512 410.763C328.462 407.702 325.966 405.247 322.905 405.247H198.56C195.463 405.247 192.952 407.758 192.952 410.855H328.513Z" fill="#455A64"/>
<path d="M90.473 193.044C90.473 195.66 92.432 351.824 92.432 351.824L208.417 379.73H218.01L211.905 161.713H203.184L90.473 193.044Z" fill="#263238"/>
<path d="M115.002 345.287L79.055 411.173H111.911C106.035 410.586 163.939 411.173 163.939 411.173L111.911 397.377L128.18 360.425L126.792 345.287H115.002Z" fill="#263238"/>
<path d="M115.804 357.448L111.911 234.654L147.229 231.267L151.583 362.38L138.967 363.021L115.804 357.448Z" fill="#263238"/>
<path d="M156.52 367.244C156.52 367.244 156.505 367.051 156.498 366.673C156.493 366.281 156.486 365.721 156.477 364.989C156.468 363.491 156.454 361.301 156.436 358.465C156.419 352.758 156.394 344.462 156.363 334.041C156.34 313.169 156.308 283.796 156.27 249.736L156.519 249.985C143.448 249.988 129.387 249.992 114.845 249.996L115.105 249.736C115.105 251.528 115.105 253.461 115.105 255.403C115.089 288.617 115.075 319.532 115.063 345.287V345.343L115.036 345.391C104.219 365.224 95.246 381.675 88.969 393.184C85.826 398.917 83.359 403.415 81.67 406.495C80.828 408.016 80.18 409.185 79.736 409.987C79.296 410.775 79.053 411.173 79.053 411.173C79.053 411.173 79.255 410.753 79.676 409.955C80.107 409.145 80.735 407.967 81.553 406.432C83.218 403.339 85.649 398.821 88.747 393.064C94.985 381.534 103.902 365.052 114.652 345.183L114.626 345.287C114.614 319.532 114.599 288.617 114.584 255.403C114.584 253.462 114.584 251.529 114.584 249.736V249.476H114.844C129.386 249.48 143.447 249.484 156.518 249.487H156.768V249.736C156.731 283.796 156.698 313.169 156.675 334.041C156.644 344.462 156.619 352.757 156.602 358.465C156.584 361.302 156.57 363.492 156.561 364.989C156.552 365.721 156.545 366.28 156.54 366.673C156.535 367.051 156.52 367.244 156.52 367.244Z" fill="#455A64"/>
<path d="M128.179 360.425C128.311 360.483 123.308 372.048 117.008 386.252C110.705 400.461 105.491 411.928 105.359 411.87C105.228 411.812 110.229 400.25 116.531 386.041C122.833 371.837 128.048 360.367 128.179 360.425Z" fill="#455A64"/>
<path d="M208.418 379.731C208.418 379.731 208.399 379.541 208.389 379.169C208.381 378.778 208.37 378.23 208.356 377.521C208.338 376.051 208.313 373.919 208.28 371.184C208.239 365.681 208.115 357.717 207.921 347.879C207.547 328.201 206.659 301.027 205.569 271.017C204.479 240.996 203.649 213.813 203.369 194.13C203.222 184.289 203.154 176.325 203.175 170.821C203.184 168.085 203.192 165.953 203.197 164.484C203.205 163.775 203.211 163.227 203.216 162.836C203.223 162.465 203.24 162.275 203.24 162.275C203.24 162.275 203.259 162.465 203.269 162.836C203.277 163.227 203.288 163.775 203.302 164.484C203.32 165.954 203.345 168.085 203.378 170.821C203.419 176.324 203.543 184.286 203.737 194.125C204.111 213.803 204.999 240.979 206.089 271C207.179 301.01 208.009 328.191 208.289 347.874C208.436 357.715 208.504 365.68 208.483 371.185C208.474 373.921 208.466 376.053 208.461 377.523C208.453 378.232 208.447 378.78 208.442 379.171C208.435 379.54 208.418 379.731 208.418 379.731Z" fill="#455A64"/>
<path d="M150.193 248.829C150.337 248.829 150.453 274.946 150.453 307.156C150.453 339.377 150.336 365.489 150.193 365.489C150.049 365.489 149.933 339.377 149.933 307.156C149.933 274.946 150.049 248.829 150.193 248.829Z" fill="#455A64"/>
<path d="M87.696 400.889C87.681 400.899 87.51 400.66 87.197 400.194C87.034 399.947 86.843 399.659 86.623 399.327C86.386 398.99 86.143 398.583 85.903 398.105C84.82 396.265 83.59 393.385 82.731 389.655C81.877 385.925 81.587 381.317 82.112 376.287C82.686 371.265 84.035 365.809 86.446 360.482C87.661 357.815 89.229 355.397 90.98 353.27C91.402 352.724 91.836 352.197 92.305 351.709C92.765 351.213 93.206 350.709 93.668 350.234C94.631 349.325 95.535 348.391 96.527 347.602C98.43 345.93 100.442 344.599 102.337 343.391C103.323 342.85 104.252 342.284 105.19 341.825C106.141 341.395 107.018 340.902 107.92 340.579C111.462 339.138 114.511 338.438 116.64 338.256C117.695 338.079 118.533 338.144 119.092 338.107C119.653 338.096 119.947 338.099 119.947 338.117C119.947 338.135 119.653 338.167 119.095 338.212C118.539 338.283 117.709 338.251 116.665 338.458C114.559 338.7 111.552 339.449 108.062 340.92C107.173 341.251 106.309 341.75 105.372 342.184C104.448 342.647 103.533 343.217 102.562 343.761C100.696 344.973 98.713 346.304 96.839 347.968C95.862 348.753 94.973 349.681 94.024 350.584C93.569 351.055 93.135 351.555 92.682 352.046C92.22 352.53 91.793 353.052 91.378 353.591C89.655 355.695 88.113 358.081 86.92 360.701C84.538 365.963 83.184 371.376 82.59 376.341C82.045 381.319 82.292 385.877 83.092 389.578C83.896 393.279 85.061 396.153 86.082 398.01C86.306 398.492 86.534 398.904 86.756 399.248C86.959 399.589 87.134 399.884 87.285 400.137C87.569 400.62 87.711 400.879 87.696 400.889Z" fill="#455A64"/>
</svg>
