<svg width="354" height="370" viewBox="0 0 354 370" fill="none" xmlns="http://www.w3.org/2000/svg">
<path d="M12.106 361.701C13.982 362.798 18.761 366.285 22.235 368.872H34.055C32.317 365.827 30.226 362.438 27.848 359.147C27.846 359.145 27.847 359.143 27.845 359.141C21.446 350.291 13.08 342.251 4.623 344.193C-0.779998 345.432 -2.54 353.139 12.106 361.701Z" fill="#EF4136"/>
<path opacity="0.2" d="M12.106 361.701C13.982 362.798 18.761 366.285 22.235 368.872H34.055C32.317 365.827 30.226 362.438 27.848 359.147C27.846 359.145 27.847 359.143 27.845 359.141C21.446 350.291 13.08 342.251 4.623 344.193C-0.779998 345.432 -2.54 353.139 12.106 361.701Z" fill="black"/>
<path d="M21.986 359.141C21.988 359.143 21.987 359.145 21.989 359.147C23.648 362.462 25.116 365.746 26.411 368.872H38.789C37.311 350.177 32.3 322.559 15.674 318.831C7.84296 317.072 0.76196 326.044 14.591 346.391C17.368 350.479 19.832 354.831 21.986 359.141Z" fill="#EF4136"/>
<path d="M341.262 361.701C339.386 362.798 334.607 366.285 331.133 368.872H319.313C321.051 365.827 323.142 362.438 325.52 359.147C325.522 359.145 325.521 359.143 325.523 359.141C331.922 350.291 340.288 342.251 348.745 344.193C354.148 345.432 355.908 353.139 341.262 361.701Z" fill="#EF4136"/>
<path d="M331.382 359.141C331.381 359.143 331.381 359.145 331.379 359.147C329.72 362.462 328.252 365.746 326.957 368.872H314.58C316.058 350.177 321.069 322.559 337.695 318.831C345.526 317.072 352.607 326.044 338.778 346.391C336 350.479 333.536 354.831 331.382 359.141Z" fill="#EF4136"/>
<path d="M80.022 308.379C80.022 308.379 103.644 294.318 92.617 285.801C85.188 280.063 76.32 297.334 80.022 308.379Z" fill="#EF4136"/>
<path d="M71.34 306.285C71.34 306.285 41.347 307.762 46.852 296.027C50.796 287.621 67.957 295.142 71.34 306.285Z" fill="#EF4136"/>
<path d="M72.202 296.758C72.202 296.758 77.841 267.436 64.291 270.419C54.647 272.542 61.494 292.007 72.202 296.758Z" fill="#EF4136"/>
<path d="M91.177 343.83C91.28 343.891 91.413 343.896 91.523 343.831C91.685 343.735 91.738 343.527 91.643 343.364C85.321 332.589 78.636 314.631 74.142 301.462C69.27 287.186 65.852 275.312 65.818 275.193C65.766 275.013 65.578 274.908 65.398 274.96C65.218 275.013 65.114 275.201 65.166 275.383C65.2 275.502 68.622 287.392 73.5 301.684C78.004 314.881 84.707 332.886 91.058 343.71C91.088 343.761 91.13 343.801 91.177 343.83Z" fill="#263238"/>
<path d="M81.568 323.369C81.706 323.452 81.886 323.427 81.996 323.301C82.12 323.159 82.107 322.945 81.966 322.82C81.889 322.753 74.24 316.028 67.588 313.948C67.409 313.892 67.218 313.992 67.163 314.172C67.107 314.351 67.207 314.542 67.386 314.598C73.899 316.635 81.441 323.265 81.517 323.331C81.532 323.346 81.55 323.358 81.568 323.369Z" fill="#263238"/>
<path d="M69.122 316.179C70.542 315.177 70.865 313.215 69.843 311.795C68.995 310.619 67.489 310.185 66.189 310.644C65.922 310.737 65.664 310.87 65.422 311.04C64.002 312.042 63.679 314.004 64.7 315.424C64.783 315.538 64.871 315.647 64.966 315.747C66.04 316.889 67.817 317.099 69.122 316.179Z" fill="#EF4136"/>
<g opacity="0.5">
<path d="M69.122 316.179C70.542 315.177 70.865 313.215 69.843 311.795C68.995 310.619 67.489 310.185 66.189 310.644C65.922 310.737 65.664 310.87 65.422 311.04C64.002 312.042 63.679 314.004 64.7 315.424C64.783 315.538 64.871 315.647 64.966 315.747C66.04 316.889 67.817 317.099 69.122 316.179Z" fill="white"/>
</g>
<path d="M84.406 330.158C84.467 330.195 84.541 330.213 84.617 330.204C84.803 330.182 84.937 330.014 84.917 329.827C84.334 324.629 91.715 314.403 91.789 314.299C91.899 314.147 91.866 313.934 91.715 313.822C91.564 313.712 91.351 313.745 91.24 313.897C90.929 314.325 83.629 324.444 84.241 329.902C84.254 330.013 84.317 330.105 84.406 330.158Z" fill="#263238"/>
<path d="M92.8371 316.304C91.1151 316.597 89.4681 315.448 89.1581 313.735C88.9011 312.314 89.6441 310.953 90.8871 310.363C91.1421 310.242 91.4191 310.154 91.7131 310.103C93.4351 309.81 95.0821 310.96 95.3921 312.673C95.4171 312.811 95.4331 312.949 95.4391 313.086C95.5131 314.64 94.4191 316.034 92.8371 316.304Z" fill="#EF4136"/>
<g opacity="0.5">
<path d="M92.8371 316.304C91.1151 316.597 89.4681 315.448 89.1581 313.735C88.9011 312.314 89.6441 310.953 90.8871 310.363C91.1421 310.242 91.4191 310.154 91.7131 310.103C93.4351 309.81 95.0821 310.96 95.3921 312.673C95.4171 312.811 95.4331 312.949 95.4391 313.086C95.5131 314.64 94.4191 316.034 92.8371 316.304Z" fill="white"/>
</g>
<path d="M77.941 313.961C77.971 313.979 78.005 313.993 78.041 314.001C78.224 314.041 78.406 313.926 78.446 313.741C80.507 304.375 89.493 293.488 89.584 293.379C89.704 293.234 89.685 293.019 89.541 292.898C89.397 292.776 89.183 292.797 89.063 292.941C89.04 292.968 86.744 295.739 84.223 299.644C81.891 303.255 78.88 308.607 77.783 313.592C77.751 313.741 77.819 313.888 77.941 313.961Z" fill="#263238"/>
<path d="M77.0571 311.548C77.1801 311.622 77.3401 311.611 77.4541 311.512C77.5951 311.389 77.6101 311.173 77.4871 311.031C74.8541 308.001 70.3111 304.841 63.9841 301.636C59.2851 299.255 55.3001 297.739 55.2611 297.724C55.0861 297.658 54.8891 297.746 54.8231 297.923C54.7571 298.1 54.8461 298.295 55.0211 298.363C55.1781 298.422 70.8241 304.404 76.9751 311.48C76.9981 311.507 77.0261 311.53 77.0571 311.548Z" fill="#263238"/>
<path d="M238.483 303.319C238.483 303.319 220.841 282.19 234.057 277.826C242.961 274.886 245.624 294.132 238.483 303.319Z" fill="#EF4136"/>
<path d="M247.366 304.234C247.366 304.234 275.175 315.611 273.856 302.708C272.912 293.465 254.237 294.848 247.366 304.234Z" fill="#EF4136"/>
<path d="M249.699 294.96C249.699 294.96 254.062 265.42 265.861 272.745C274.258 277.957 261.369 294.043 249.699 294.96Z" fill="#EF4136"/>
<path d="M216.253 333.052C216.135 333.075 216.009 333.036 215.926 332.937C215.805 332.794 215.823 332.578 215.967 332.457C225.49 324.395 237.727 309.678 246.315 298.75C255.626 286.904 262.772 276.839 262.843 276.739C262.952 276.585 263.164 276.549 263.317 276.658C263.47 276.768 263.506 276.981 263.397 277.134C263.326 277.235 256.17 287.314 246.849 299.173C238.241 310.125 225.972 324.88 216.405 332.978C216.359 333.017 216.307 333.041 216.253 333.052Z" fill="#263238"/>
<path d="M232.075 316.948C231.918 316.979 231.756 316.896 231.694 316.741C231.624 316.566 231.708 316.367 231.881 316.297C231.975 316.259 241.413 312.461 248.376 312.713C248.564 312.72 248.71 312.878 248.703 313.066C248.696 313.254 248.539 313.402 248.351 313.395C241.534 313.148 232.229 316.893 232.136 316.93C232.116 316.938 232.095 316.944 232.075 316.948Z" fill="#263238"/>
<path d="M246.191 314.306C245.182 312.889 245.525 310.93 246.958 309.931C248.146 309.103 249.711 309.195 250.785 310.06C251.006 310.238 251.206 310.448 251.378 310.69C252.387 312.107 252.044 314.066 250.611 315.065C250.495 315.147 250.376 315.218 250.253 315.281C248.865 316.002 247.118 315.609 246.191 314.306Z" fill="#EF4136"/>
<g opacity="0.5">
<path d="M246.191 314.306C245.182 312.889 245.525 310.93 246.958 309.931C248.146 309.103 249.711 309.195 250.785 310.06C251.006 310.238 251.206 310.448 251.378 310.69C252.387 312.107 252.044 314.066 250.611 315.065C250.495 315.147 250.376 315.218 250.253 315.281C248.865 316.002 247.118 315.609 246.191 314.306Z" fill="white"/>
</g>
<path d="M227.155 322.408C227.085 322.422 227.01 322.414 226.941 322.38C226.772 322.298 226.701 322.094 226.783 321.925C229.049 317.215 225.464 305.11 225.427 304.988C225.373 304.807 225.475 304.618 225.655 304.563C225.834 304.509 226.024 304.612 226.078 304.791C226.23 305.298 229.775 317.275 227.395 322.222C227.347 322.322 227.256 322.387 227.155 322.408Z" fill="#263238"/>
<path d="M223.777 306.531C225.304 307.382 227.238 306.844 228.097 305.332C228.809 304.078 228.557 302.546 227.579 301.575C227.378 301.376 227.147 301.2 226.886 301.055C225.359 300.205 223.425 300.742 222.567 302.254C222.497 302.377 222.437 302.501 222.386 302.629C221.801 304.069 222.373 305.75 223.777 306.531Z" fill="#EF4136"/>
<g opacity="0.5">
<path d="M223.777 306.531C225.304 307.382 227.238 306.844 228.097 305.332C228.809 304.078 228.557 302.546 227.579 301.575C227.378 301.376 227.147 301.2 226.886 301.055C225.359 300.205 223.425 300.742 222.567 302.254C222.497 302.377 222.437 302.501 222.386 302.629C221.801 304.069 222.373 305.75 223.777 306.531Z" fill="white"/>
</g>
<path d="M238.603 309.278C238.568 309.285 238.532 309.286 238.495 309.282C238.309 309.259 238.176 309.089 238.199 308.903C239.348 299.38 234.465 286.118 234.415 285.985C234.349 285.809 234.438 285.613 234.614 285.547C234.79 285.48 234.986 285.57 235.051 285.746C235.064 285.78 236.314 289.158 237.404 293.681C238.412 297.865 239.484 303.915 238.873 308.985C238.856 309.135 238.743 309.25 238.603 309.278Z" fill="#263238"/>
<path d="M240.234 307.297C240.094 307.325 239.946 307.262 239.872 307.131C239.779 306.967 239.837 306.759 240 306.666C243.485 304.684 248.815 303.214 255.842 302.296C261.062 301.615 265.321 301.511 265.364 301.51C265.552 301.506 265.707 301.655 265.711 301.844C265.715 302.032 265.566 302.188 265.379 302.192C265.211 302.196 248.475 302.631 240.335 307.259C240.303 307.278 240.269 307.29 240.234 307.297Z" fill="#263238"/>
<path d="M55.349 330.21C55.349 330.21 56.355 318.34 51.616 317.633C46.877 316.928 51.253 328.543 51.253 328.543C51.253 328.543 46.322 322.334 43.022 325.106C39.722 327.878 51.236 332.716 51.236 332.716L55.349 330.21Z" fill="#EF4136"/>
<path d="M245.145 352.656C245.145 352.656 260.158 338.098 262.658 338.098C265.158 338.098 284.478 338.6 293.568 338.098C302.658 337.596 312.658 346.632 320.658 352.656C328.658 358.68 350.158 364.202 350.158 364.202L353.658 369.724H245.145V352.656Z" fill="#263238"/>
<path opacity="0.4" d="M353.66 369.724H245.15V352.656C245.15 352.656 260.16 338.098 262.66 338.098C263.18 338.098 264.41 338.118 266.12 338.148C272.7 338.259 286.36 338.5 293.57 338.098C302.66 337.596 312.66 346.632 320.66 352.656C328.66 358.68 350.16 364.202 350.16 364.202L353.16 368.931L353.66 369.724Z" fill="white"/>
<path opacity="0.2" d="M353.66 369.724H245.15V352.656C245.15 352.656 260.16 338.098 262.66 338.098C263.18 338.098 264.41 338.118 266.12 338.148C266.72 347.455 275.34 354.413 284.77 352.696C284.85 352.686 284.92 352.666 285 352.656C288.69 351.983 301.25 353.911 305.25 360.437C309.25 366.963 328.35 366.23 328.35 366.23C328.35 366.23 345.81 367.033 353.16 368.931L353.66 369.724Z" fill="black"/>
<path opacity="0.5" d="M113.89 353.326C113.89 353.326 96.557 328.895 92.223 326.218C87.89 323.54 71.556 327.891 60.556 327.891C49.556 327.891 43.223 343.489 36.556 346.298C29.89 349.106 7.22302 369.724 7.22302 369.724H119.89L113.89 353.326Z" fill="white"/>
<path d="M113.89 353.326C113.89 353.326 96.557 328.895 92.223 326.218C87.89 323.54 71.556 327.891 60.556 327.891C49.556 327.891 43.223 343.489 36.556 346.298C29.89 349.106 7.22302 369.724 7.22302 369.724H119.89L113.89 353.326Z" fill="#263238"/>
<path opacity="0.4" d="M119.89 369.724H7.21997C7.21997 369.724 7.94997 369.061 9.17997 367.957C14.82 362.917 31.08 348.6 36.56 346.301C43.22 343.489 49.56 327.887 60.56 327.887C70.77 327.887 85.58 324.142 91.11 325.759C91.54 325.869 91.91 326.03 92.22 326.221C96.56 328.891 113.89 353.329 113.89 353.329L119.89 369.724Z" fill="white"/>
<path opacity="0.2" d="M119.89 369.724H7.21997C7.21997 369.724 7.94997 369.061 9.17997 367.957C14.9 367.204 27.78 365.326 31.26 363.198C35.77 360.437 57.5 357.676 68.5 359.433C79.5 361.19 79 344.122 84.5 339.604C87.86 336.843 89.98 330.367 91.11 325.759C91.54 325.869 91.91 326.03 92.22 326.221C96.56 328.891 113.89 353.329 113.89 353.329L119.89 369.724Z" fill="black"/>
<path d="M146.54 25.1072C148.736 15.8438 143.036 6.5474 133.81 4.34298C124.583 2.13856 115.324 7.86093 113.128 17.1243C110.933 26.3876 116.632 35.684 125.859 37.8884C135.085 40.0928 144.345 34.3705 146.54 25.1072Z" fill="#EF4136"/>
<g opacity="0.7">
<path d="M146.54 25.1072C148.736 15.8438 143.036 6.5474 133.81 4.34298C124.583 2.13856 115.324 7.86093 113.128 17.1243C110.933 26.3876 116.632 35.684 125.859 37.8884C135.085 40.0928 144.345 34.3705 146.54 25.1072Z" fill="white"/>
</g>
<path d="M129.828 38.6982C120.164 38.6982 112.302 30.8047 112.302 21.1021C112.302 11.3994 120.164 3.50598 129.828 3.50598C139.492 3.50598 147.354 11.3994 147.354 21.1021C147.354 30.8047 139.492 38.6982 129.828 38.6982ZM129.828 4.21581C120.554 4.21581 113.009 11.791 113.009 21.1021C113.009 30.4132 120.554 37.9884 129.828 37.9884C139.102 37.9884 146.648 30.4132 146.648 21.1021C146.648 11.79 139.102 4.21581 129.828 4.21581Z" fill="#EF4136"/>
<path d="M129.967 11.5189C133.686 11.5189 136.212 13.7207 136.212 17.3431C136.212 21.2728 133.437 23.0006 129.717 23.0006L129.606 25.2024H126.858L126.719 20.827H127.635C130.772 20.827 133.187 20.2698 133.187 17.3441C133.187 15.3933 131.993 14.1956 129.995 14.1956C128.024 14.1956 126.776 15.31 126.776 17.2608H123.806C123.777 13.8873 126.192 11.5189 129.967 11.5189ZM128.191 31.3599C127.053 31.3599 126.165 30.4684 126.165 29.3258C126.165 28.1833 127.053 27.2917 128.191 27.2917C129.302 27.2917 130.19 28.1833 130.19 29.3258C130.189 30.4684 129.301 31.3599 128.191 31.3599Z" fill="#EF4136"/>
<path d="M142.485 32.8107L148.441 34.7274C148.753 34.8278 149.025 34.4904 148.863 34.2043L145.484 28.2676C144.518 30.2154 143.522 31.7746 142.485 32.8107Z" fill="#EF4136"/>
<path d="M247.246 339.943C247.246 339.943 244.871 328.272 249.496 327.017C254.121 325.762 251.121 337.81 251.121 337.81C251.121 337.81 255.298 331.067 258.897 333.434C262.496 335.802 251.621 341.951 251.621 341.951L247.246 339.943Z" fill="#EF4136"/>
<path d="M131.479 311.919C131.479 311.919 130.536 300.043 125.746 300.126C120.956 300.208 127.167 310.948 127.167 310.948C127.167 310.948 121.291 305.633 118.487 308.91C115.684 312.187 127.831 315.066 127.831 315.066L131.479 311.919Z" fill="#EF4136"/>
<path opacity="0.3" d="M131.479 311.919C131.479 311.919 130.536 300.043 125.746 300.126C120.956 300.208 127.167 310.948 127.167 310.948C127.167 310.948 121.291 305.633 118.487 308.91C115.684 312.187 127.831 315.066 127.831 315.066L131.479 311.919Z" fill="white"/>
<path d="M92.158 369.724C92.158 369.724 105.491 329.23 112.158 325.346C126.776 316.832 136.921 298.668 139.158 297.436C149.681 291.638 188.114 292.472 202.969 294.786C217.825 297.101 230.158 330.698 238.825 331.804C247.492 332.91 264.158 353.659 265.158 355.667C266.158 357.675 265.158 369.723 265.158 369.723H92.158V369.724Z" fill="#263238"/>
<path opacity="0.5" d="M265.16 369.724H92.1599C92.1599 369.724 105.49 329.233 112.16 325.347C126.78 316.833 136.92 298.671 139.16 297.436C149.68 291.643 188.11 292.476 202.97 294.785C209.94 295.88 216.35 303.852 222.09 312.114C228 320.628 233.2 329.464 237.55 331.421C237.98 331.622 238.4 331.753 238.82 331.803C247.49 332.907 264.16 353.66 265.16 355.668C266.16 357.676 265.16 369.724 265.16 369.724Z" fill="white"/>
<path opacity="0.2" d="M237.55 331.421C233.62 331.2 229.01 331.11 224.5 331.381C213 332.074 204 331.361 200.33 331.211C196.67 331.07 200.69 323.61 207.26 320.648C211.62 318.681 217.94 315.066 222.09 312.114C228 320.628 233.2 329.464 237.55 331.421Z" fill="black"/>
<path opacity="0.2" d="M257.66 369.724H107.91C115.56 364.302 133.55 352.244 142.77 351.983C154.67 351.652 166.48 362.696 180.4 357.676C194.33 352.656 213.854 345.589 223.294 345.879C241.055 346.424 254.2 358.901 257.66 369.724Z" fill="black"/>
<path d="M158.919 71.4386C163.272 64.6988 165.698 62.4679 176.717 65.0291C187.736 67.5903 188.854 59.229 186.778 57.1878C184.702 55.1467 185.415 54.5604 186.503 52.6156C187.591 50.6709 188.209 49.5253 187.454 48.1649C186.699 46.8045 186.057 45.9089 187.787 43.7965C189.517 41.6841 188.231 34.885 188.231 34.885L176.158 22.9815C176.158 22.9815 167.905 22.3852 164.588 26.7897C161.271 31.1933 161.868 34.1521 158.864 35.383C156.243 36.4572 155.708 39.8939 156.069 41.8357C156.52 44.2613 155.066 45.5003 152.873 45.8557C150.223 46.2864 149.021 48.5946 149.021 50.3667C149.021 51.9309 148.219 53.4821 145.972 53.6427C144.151 53.7732 141.13 55.7611 140.997 59.4428C140.836 63.9006 136.878 64.5994 139.232 70.8553C142.114 78.5138 154.051 78.9756 158.919 71.4386Z" fill="#263238"/>
<path d="M218.609 77.1413C218.592 77.4766 218.575 77.8371 218.498 78.3441C218.481 78.4555 218.455 78.5931 218.421 78.7477C218.395 78.8852 218.344 79.066 218.292 79.2377C218.249 79.3923 218.164 79.6413 218.095 79.822L217.924 80.2005C217.873 80.3119 217.813 80.4414 217.71 80.6041C217.411 81.1372 216.863 81.9444 215.827 82.6412C215.322 82.9846 214.68 83.2767 214.055 83.4404C213.73 83.5267 213.43 83.5779 213.131 83.6121C212.977 83.6292 212.831 83.6382 212.677 83.6462H212.549L211.89 83.6291C211.693 83.6211 211.394 83.603 211.274 83.5779L210.392 83.4494L209.682 83.3119C208.766 83.1061 208.022 82.8912 207.268 82.6763C205.804 82.2376 204.444 81.7657 203.1 81.2838C200.438 80.3039 197.87 79.2728 195.337 78.1905C195.072 78.079 194.798 77.9666 194.532 77.8471C193.599 77.4435 192.657 77.0309 191.733 76.6182C191.382 76.4636 191.04 76.309 190.697 76.1453C189.439 75.5781 188.189 74.9937 186.948 74.3924C184.766 73.3522 182.609 72.2699 180.452 71.1354L181.787 57.8073C186.589 60.0502 195.627 64.6646 200.395 66.9848C202.646 68.0671 204.905 69.1675 207.131 70.1645C206.771 67.8272 206.335 65.4296 205.907 63.0411L202.595 44.9691L208.458 43.0615C210.64 48.1398 212.9 55.487 214.672 60.738C215.571 63.3504 216.401 65.9969 217.146 68.7469C217.531 70.1213 217.882 71.5229 218.173 73.0349C218.31 73.8 218.456 74.5901 218.541 75.5098C218.584 75.9897 218.618 76.4797 218.609 77.1413Z" fill="#EF4136"/>
<path opacity="0.2" d="M190.698 76.1443C189.44 75.5771 188.19 74.9927 186.949 74.3913L186.778 65.5662C186.966 66.0822 188.216 71.6755 190.193 75.1825C190.373 75.4998 190.544 75.8261 190.698 76.1443Z" fill="black"/>
<path d="M220.061 37.5787H190.05V40.7714H220.061V37.5787Z" fill="#263238"/>
<path d="M202.599 44.9641C202.599 44.9641 199.196 42.3035 198.805 41.2393C198.414 40.175 200.033 37.662 200.814 37.7132C201.91 37.7855 200.479 40.5706 200.479 40.5706L207.202 40.7714C207.202 40.7714 208.485 40.9029 208.457 43.0595C206.748 44.5173 204.854 45.3517 202.599 44.9641Z" fill="#FFC3BD"/>
<path d="M199.474 38.1249C199.474 38.1249 198.749 36.5054 199.697 36.0566C200.646 35.6088 206.169 35.8699 207.48 36.5657C208.791 37.2614 208.066 39.165 207.062 39.403C206.058 39.6419 200.674 40.2212 199.474 38.1249Z" fill="#FFC3BD"/>
<path d="M229.636 35.642H211.265V42.7081H229.636V35.642Z" fill="#EF4136"/>
<path opacity="0.3" d="M229.636 35.642H211.265V42.7081H229.636V35.642Z" fill="white"/>
<path d="M250.029 34.4673H223.037V43.8818H250.029V34.4673Z" fill="#EF4136"/>
<path d="M250.499 33.4452H248.626V45.3627H250.499V33.4452Z" fill="#EF4136"/>
<path opacity="0.4" d="M250.499 33.4452H248.626V45.3627H250.499V33.4452Z" fill="black"/>
<path d="M190.05 36.8598H188.177V41.4893H190.05V36.8598Z" fill="#EF4136"/>
<path d="M181.668 279.052L183.729 288.945H188.915L189.483 279.052H181.668Z" fill="#FFC3BD"/>
<path d="M203.74 295.943C203.567 292.719 202.19 291.757 200.453 291.647C198.646 291.533 192.255 289.358 192.255 289.358C192.255 289.358 190.973 287.311 189.798 286.895C188.622 286.479 187.43 287.697 187.43 287.697L184.188 287.299C184.188 287.299 183.262 285.827 182.547 287.116C181.44 289.114 181.38 294.646 181.432 295.942H203.74V295.943Z" fill="#EF4136"/>
<path d="M203.346 295.101C201.996 295.095 200.652 295.089 199.302 295.082C193.405 295.053 187.509 295.018 181.612 294.989C181.387 294.99 181.444 294.644 181.669 294.649C182.066 294.654 182.47 294.652 182.867 294.656C182.869 294.643 182.879 294.623 182.888 294.61C184.045 292.752 183.378 290.866 181.839 289.925C181.658 289.822 181.887 289.519 182.06 289.63C183.725 290.648 184.397 292.666 183.224 294.654C184.057 294.663 184.885 294.665 185.719 294.667C191.609 294.696 197.505 294.731 203.403 294.759C203.628 294.759 203.57 295.107 203.346 295.101Z" fill="black"/>
<path d="M191.231 290.753C192.187 289.668 193.542 289.361 194.494 290.179C194.648 290.312 194.87 290.013 194.718 289.883C193.625 288.943 192.048 289.352 190.965 290.581C190.806 290.76 191.074 290.932 191.231 290.753Z" fill="white"/>
<path d="M193.04 291.331C193.996 290.245 195.351 289.938 196.303 290.756C196.457 290.889 196.679 290.591 196.527 290.46C195.434 289.52 193.857 289.929 192.774 291.158C192.615 291.338 192.883 291.508 193.04 291.331Z" fill="white"/>
<path d="M194.912 291.907C195.868 290.822 197.222 290.514 198.175 291.333C198.329 291.465 198.551 291.167 198.399 291.037C197.306 290.098 195.729 290.505 194.646 291.734C194.487 291.914 194.754 292.086 194.912 291.907Z" fill="white"/>
<path d="M192.53 203.695C192.573 230.463 189.859 281.593 189.859 281.593L181.848 281.765C181.848 281.765 168.444 236.013 173.323 204.347C172.116 198.881 171.055 193.743 170.122 188.922C169.548 185.957 169.026 183.113 168.556 180.38C166.93 171.065 165.851 163.073 165.158 156.223C164.91 153.826 164.713 151.575 164.559 149.451C162.77 124.565 166.759 117.974 166.759 117.974L188.55 118.06C188.55 118.062 192.462 159.835 192.53 203.695Z" fill="#263238"/>
<path opacity="0.2" d="M168.556 180.382C166.93 171.067 165.851 163.075 165.158 156.225L168.256 133.943C168.256 133.943 170.773 161.209 168.556 180.382Z" fill="black"/>
<path d="M190.711 283.482L191.079 280.039H180.404L180.892 283.482H190.711Z" fill="#263238"/>
<path d="M144.848 279.162L146.938 288.991H152.124L152.663 279.162H144.848Z" fill="#FFC3BD"/>
<path d="M166.97 295.943C166.787 292.74 165.407 291.784 163.67 291.675C161.863 291.562 155.465 289.401 155.465 289.401C155.465 289.401 154.178 287.367 153 286.954C151.823 286.542 150.634 287.751 150.634 287.751L147.39 287.355C147.39 287.355 146.459 285.893 145.748 287.174C144.646 289.159 144.603 294.655 144.66 295.943H166.97Z" fill="#EF4136"/>
<path d="M166.573 295.107C165.223 295.101 163.879 295.095 162.529 295.089C156.632 295.06 150.736 295.025 144.838 294.996C144.613 294.997 144.669 294.653 144.894 294.658C145.291 294.663 145.695 294.661 146.092 294.665C146.094 294.652 146.104 294.633 146.113 294.62C147.264 292.774 146.592 290.9 145.05 289.965C144.868 289.862 145.096 289.563 145.27 289.672C146.939 290.684 147.616 292.689 146.449 294.664C147.282 294.673 148.11 294.675 148.944 294.677C154.835 294.705 160.731 294.74 166.628 294.769C166.854 294.767 166.798 295.112 166.573 295.107Z" fill="black"/>
<path d="M154.446 290.786C155.399 289.709 156.752 289.403 157.707 290.215C157.861 290.347 158.083 290.051 157.93 289.921C156.834 288.987 155.259 289.393 154.179 290.614C154.021 290.793 154.289 290.964 154.446 290.786Z" fill="white"/>
<path d="M156.257 291.36C157.21 290.281 158.563 289.976 159.518 290.788C159.672 290.92 159.894 290.624 159.741 290.494C158.645 289.562 157.07 289.966 155.99 291.187C155.832 291.368 156.1 291.537 156.257 291.36Z" fill="white"/>
<path d="M158.13 291.934C159.083 290.856 160.436 290.551 161.391 291.363C161.545 291.494 161.767 291.198 161.614 291.068C160.518 290.135 158.943 290.54 157.863 291.761C157.705 291.941 157.973 292.112 158.13 291.934Z" fill="white"/>
<path d="M139.772 150.409C139.565 160.314 140.006 173.127 141.66 189.616C142.14 194.407 142.723 199.512 143.426 204.945C135.598 236.408 144.746 281.861 144.746 281.861L152.771 281.682C152.771 281.682 160.249 230.887 162.697 204.294C166.708 160.723 166.679 119.219 166.679 119.219L144.894 119.134C144.894 119.134 140.294 125.685 139.772 150.409Z" fill="#263238"/>
<path d="M153.449 283.563L154.139 280.142H143.463L143.631 283.563H153.449Z" fill="#263238"/>
<path d="M189.358 121.083C189.358 125.079 160.148 126.967 142.768 121.214C143.058 120.13 143.468 118.242 143.718 117.148C143.848 116.636 143.968 116.114 144.078 115.581C144.438 113.835 144.728 111.927 144.988 109.859C144.988 109.778 145.008 109.668 145.028 109.578C145.328 106.937 145.538 104.066 145.648 100.963C145.688 99.8287 145.718 98.6741 145.728 97.4794C145.738 96.3348 145.738 95.1601 145.718 93.9453C145.708 93.132 145.698 92.3088 145.668 91.4654C145.648 90.7726 145.618 90.0799 145.578 89.367C145.508 87.59 145.398 85.7627 145.248 83.8952C145.098 81.9676 144.918 80.0098 144.688 77.9917V77.9817C144.278 74.3271 143.738 70.542 143.058 66.6465C142.078 61.1546 146.078 56.0443 151.598 55.6527C153.088 55.5523 154.648 55.482 156.258 55.4519C157.858 55.4419 159.388 55.4017 160.888 55.4017C165.148 55.3816 168.998 55.482 173.038 55.974C173.338 56.0142 173.638 56.0543 173.958 56.0945C175.468 56.2953 176.998 56.5463 178.498 56.7973C184.918 57.9117 187.698 62.3795 187.918 70.1103C188.168 78.6945 194.668 84.0659 186.448 89.8389C185.388 97.1681 189.358 109.829 189.358 121.083Z" fill="#EF4136"/>
<path opacity="0.2" d="M145.728 97.4794C145.738 96.3348 145.738 95.1601 145.718 93.9453C145.708 93.1321 145.698 92.3088 145.668 91.4654L150.308 82.0579L145.648 100.963C145.688 99.8287 145.718 98.6741 145.728 97.4794Z" fill="black"/>
<path d="M144.107 60.4408C144.107 60.4408 133.216 94.7736 130.908 97.64C127.178 102.272 106.325 114.919 106.325 114.919L107.185 121.996C107.185 121.996 131.665 116.454 139.725 105.533C144.755 98.7183 154.89 69.535 154.89 69.535L144.107 60.4408Z" fill="#EF4136"/>
<path d="M185.865 42.5636C185.865 42.5636 190.735 35.8568 186.503 29.5126C182.271 23.1683 175.407 25.8108 175.407 25.8108L185.865 42.5636Z" fill="#263238"/>
<path d="M174.063 58.2591C174.098 58.3675 174.144 58.478 174.215 58.5904C175.615 60.8073 172.983 64.8684 172.983 64.8684C173.209 64.9136 172.749 64.8514 172.983 64.8684C172.983 64.8684 169.327 61.9438 168.728 61.2922C168.725 61.2892 168.723 61.2862 168.72 61.2842C165.833 58.1386 162.728 55.7551 162.728 55.7551C166.348 53.8074 167.671 46.8878 168.008 42.5646L173.628 49.7492L174.68 51.3185C174.171 52.2231 173.717 53.1618 173.461 54.0925C173.047 55.5363 173.225 56.0031 174.063 58.2591Z" fill="#FFC3BD"/>
<g opacity="0.2">
<path d="M173.462 54.0915C173.717 53.1598 174.172 52.221 174.681 51.3174L173.629 49.7482L170.09 49.8295C170.09 49.8295 171.018 52.6979 173.462 54.0915Z" fill="black"/>
</g>
<path d="M166.978 34.8599C166.415 41.9632 166.029 44.9571 168.997 49.0625C173.463 55.2371 182.11 54.3445 184.736 47.5454C187.099 41.425 187.623 30.8378 181.281 27.0849C175.032 23.3892 167.541 27.7566 166.978 34.8599Z" fill="#FFC3BD"/>
<path d="M168.533 39.5094C164.986 38.5626 166.38 34.884 166.38 34.884L171.605 35.6972C171.605 35.6972 172.08 40.4481 168.533 39.5094Z" fill="#263238"/>
<path d="M182.854 27.7454C182.854 27.7454 182.763 31.6731 177.964 31.8829C173.165 32.0928 173.528 39.4631 168.212 38.0886C161.648 36.3909 164.135 30.7635 165.718 28.3227C166.724 26.7706 177.462 17.4615 182.854 27.7454Z" fill="#263238"/>
<path d="M181.787 45.8075C181.787 45.8075 178.341 44.2433 177.583 42.7363C177.583 42.7363 177.077 45.431 178.883 46.425C180.688 47.4179 181.787 45.8075 181.787 45.8075Z" fill="white"/>
<path d="M178.62 38.0285C178.54 38.6018 178.778 39.1098 179.151 39.162C179.524 39.2142 179.892 38.7925 179.972 38.2193C180.052 37.646 179.815 37.1379 179.441 37.0857C179.068 37.0325 178.701 37.4542 178.62 38.0285Z" fill="#263238"/>
<path d="M184.424 38.9753C184.344 39.5486 184.582 40.0566 184.955 40.1098C185.328 40.162 185.696 39.7403 185.776 39.167C185.856 38.5938 185.619 38.0857 185.245 38.0335C184.872 37.9803 184.504 38.402 184.424 38.9753Z" fill="#263238"/>
<path d="M185.076 38.0405L186.503 37.8367C186.503 37.8367 185.649 38.8146 185.076 38.0405Z" fill="#263238"/>
<path d="M182.293 38.8568C182.293 38.8568 183.065 40.5154 183.949 41.9852C184.236 42.4632 184.022 43.0917 183.492 43.2654C182.582 43.5625 181.632 43.6218 181.632 43.6218L182.293 38.8568Z" fill="#ED847E"/>
<path d="M163.8 39.3859C164.239 40.8226 165.219 41.8246 166.215 42.2614C167.713 42.918 168.728 41.3116 168.534 39.5064C168.359 37.8829 167.37 35.5837 165.759 35.7042C164.173 35.8227 163.299 37.7433 163.8 39.3859Z" fill="#FFC3BD"/>
<path d="M167.542 41.2393C167.542 41.7694 167.114 42.1991 166.586 42.1991C166.058 42.1991 165.63 41.7694 165.63 41.2393C165.63 40.7092 166.058 40.2794 166.586 40.2794C167.114 40.2794 167.542 40.7092 167.542 41.2393Z" fill="white"/>
<path d="M177.057 35.7333C177.146 35.7333 177.236 35.6972 177.302 35.6269C178.339 34.5235 179.568 34.7314 179.582 34.7334C179.764 34.7655 179.942 34.644 179.976 34.4593C180.009 34.2745 179.887 34.0978 179.703 34.0637C179.639 34.0527 178.096 33.7896 176.809 35.1591C176.681 35.2956 176.687 35.5105 176.823 35.64C176.889 35.7032 176.973 35.7333 177.057 35.7333Z" fill="#263238"/>
<path d="M187.087 36.7645C187.171 36.7715 187.257 36.7484 187.329 36.6912C187.474 36.5737 187.497 36.3588 187.381 36.2133C186.206 34.7474 184.648 34.886 184.582 34.893C184.396 34.9121 184.26 35.0787 184.279 35.2655C184.297 35.4522 184.463 35.5878 184.649 35.5697C184.71 35.5637 185.92 35.4743 186.853 36.64C186.913 36.7143 186.998 36.7574 187.087 36.7645Z" fill="#263238"/>
<path d="M179.272 37.0938L180.699 36.89C180.699 36.89 179.845 37.8668 179.272 37.0938Z" fill="#263238"/>
<path d="M163.589 55.3997C163.589 55.3997 161.319 53.959 158.11 55.4298L164.744 65.5662C164.744 65.5662 163.947 63.4247 167.098 63.7048C170.249 63.9849 172.982 64.8684 172.982 64.8684C172.982 64.8684 167.045 58.745 163.589 55.3997Z" fill="#EF4136"/>
<path opacity="0.3" d="M163.589 55.3997C163.589 55.3997 161.319 53.959 158.11 55.4298L164.744 65.5662C164.744 65.5662 163.947 63.4247 167.098 63.7048C170.249 63.9849 172.982 64.8684 172.982 64.8684C172.982 64.8684 167.045 58.745 163.589 55.3997Z" fill="white"/>
<path d="M173.321 56.0142C173.321 56.0142 175.123 61.5382 172.983 64.8674C172.983 64.8674 177.049 62.4026 178.118 62.6687C179.188 62.9347 178.92 64.5994 178.92 64.5994C178.92 64.5994 180.811 61.1085 179.652 58.5844C178.493 56.0603 173.321 56.0142 173.321 56.0142Z" fill="#EF4136"/>
<path opacity="0.3" d="M173.321 56.0142C173.321 56.0142 175.123 61.5382 172.983 64.8674C172.983 64.8674 177.049 62.4026 178.118 62.6687C179.188 62.9347 178.92 64.5994 178.92 64.5994C178.92 64.5994 180.811 61.1085 179.652 58.5844C178.493 56.0603 173.321 56.0142 173.321 56.0142Z" fill="white"/>
<path d="M103.141 340.538L101.79 343.713L101.558 52.0042H103.141V340.538Z" fill="#263238"/>
<path d="M103.48 57.4338C103.48 57.4338 87.995 51.9299 77.634 62.1295C58.648 80.819 49.552 70.8211 49.552 70.8211C49.552 70.8211 53.51 91.2837 73.408 81.2527C88.963 73.4115 103.48 78.3281 103.48 78.3281C104.251 78.3281 104.251 57.4338 103.48 57.4338Z" fill="#EF4136"/>
<path d="M104.36 52.0042C104.36 53.1186 103.46 54.0222 102.35 54.0222C101.24 54.0222 100.34 53.1186 100.34 52.0042C100.34 50.8897 101.24 49.9861 102.35 49.9861C103.46 49.9861 104.36 50.8897 104.36 52.0042Z" fill="#EF4136"/>
<path opacity="0.3" d="M104.36 52.0042C104.36 53.1186 103.46 54.0222 102.35 54.0222C101.24 54.0222 100.34 53.1186 100.34 52.0042C100.34 50.8897 101.24 49.9861 102.35 49.9861C103.46 49.9861 104.36 50.8897 104.36 52.0042Z" fill="white"/>
<path d="M107.122 114.96C107.122 114.96 104.514 114.218 103.297 113.969C102.081 113.72 99.631 115.903 99.817 116.745C100.077 117.928 102.383 116.483 102.383 116.483L102.517 124.382C102.517 124.382 104.246 124.024 105.954 122.918C109.961 120.483 109.251 116.575 107.122 114.96Z" fill="#FFC3BD"/>
<path d="M101.795 115.234C101.795 115.234 100.037 114.403 99.5279 115.44C99.0189 116.477 99.1989 122.574 99.9339 124.034C100.669 125.494 102.767 124.731 103.047 123.628C103.327 122.525 104.065 116.598 101.795 115.234Z" fill="#FFC3BD"/>
</svg>
